Raleway-Light-Italic-TTF.ufo
<glyph name="percent" format="1">
  <advance width="672"/>
  <unicode hex="0025"/>
  <outline>
    <contour>
      <point x="211" y="437" type="qcurve"/>
      <point x="160" y="437"/>
      <point x="99" y="504"/>
      <point x="99" y="553" type="qcurve"/>
      <point x="99" y="587"/>
      <point x="128" y="647"/>
      <point x="176" y="693"/>
      <point x="238" y="720"/>
      <point x="271" y="720" type="qcurve"/>
      <point x="322" y="720"/>
      <point x="383" y="653"/>
      <point x="383" y="603" type="qcurve"/>
      <point x="383" y="570"/>
      <point x="354" y="509"/>
      <point x="306" y="464"/>
      <point x="244" y="437"/>
    </contour>
    <contour>
      <point x="218" y="469" type="qcurve"/>
      <point x="242" y="469"/>
      <point x="287" y="491"/>
      <point x="322" y="527"/>
      <point x="343" y="574"/>
      <point x="343" y="599" type="qcurve"/>
      <point x="343" y="637"/>
      <point x="298" y="688"/>
      <point x="264" y="688" type="qcurve"/>
      <point x="240" y="688"/>
      <point x="195" y="666"/>
      <point x="160" y="630"/>
      <point x="139" y="583"/>
      <point x="139" y="558" type="qcurve"/>
      <point x="139" y="520"/>
      <point x="183" y="469"/>
    </contour>
    <contour>
      <point x="424" y="-10" type="qcurve"/>
      <point x="374" y="-10"/>
      <point x="312" y="57"/>
      <point x="312" y="107" type="qcurve"/>
      <point x="312" y="140"/>
      <point x="342" y="201"/>
      <point x="390" y="246"/>
      <point x="452" y="273"/>
      <point x="484" y="273" type="qcurve"/>
      <point x="534" y="273"/>
      <point x="595" y="206"/>
      <point x="595" y="157" type="qcurve"/>
      <point x="595" y="123"/>
      <point x="566" y="63"/>
      <point x="518" y="17"/>
      <point x="457" y="-10"/>
    </contour>
    <contour>
      <point x="430" y="22" type="qcurve"/>
      <point x="454" y="22"/>
      <point x="499" y="44"/>
      <point x="534" y="80"/>
      <point x="556" y="126"/>
      <point x="556" y="151" type="qcurve"/>
      <point x="556" y="189"/>
      <point x="511" y="241"/>
      <point x="477" y="241" type="qcurve"/>
      <point x="453" y="241"/>
      <point x="408" y="219"/>
      <point x="373" y="183"/>
      <point x="351" y="136"/>
      <point x="351" y="111" type="qcurve"/>
      <point x="351" y="73"/>
      <point x="395" y="22"/>
    </contour>
    <contour>
      <point x="-1" y="21" type="line"/>
      <point x="672" y="713" type="line"/>
      <point x="695" y="690" type="line"/>
      <point x="22" y="-3" type="line"/>
    </contour>
  </outline>
</glyph>
<glyph name="ampersand" format="1">
  <advance width="670"/>
  <unicode hex="0026"/>
  <outline>
    <contour>
      <point x="414" y="110" type="line"/>
      <point x="364" y="53"/>
      <point x="247" y="-10"/>
      <point x="186" y="-10" type="qcurve"/>
      <point x="149" y="-10"/>
      <point x="88" y="14"/>
      <point x="44" y="58"/>
      <point x="19" y="119"/>
      <point x="19" y="155" type="qcurve"/>
      <point x="19" y="232"/>
      <point x="121" y="349"/>
      <point x="213" y="404" type="qcurve"/>
      <point x="182" y="452"/>
      <point x="156" y="516"/>
      <point x="156" y="545" type="qcurve"/>
      <point x="156" y="580"/>
      <point x="189" y="643"/>
      <point x="245" y="691"/>
      <point x="318" y="719"/>
      <point x="359" y="719" type="qcurve"/>
      <point x="413" y="719"/>
      <point x="496" y="664"/>
      <point x="518" y="614" type="qcurve"/>
      <point x="483" y="583" type="line"/>
      <point x="466" y="627"/>
      <point x="396" y="679"/>
      <point x="351" y="679" type="qcurve"/>
      <point x="322" y="679"/>
      <point x="268" y="658"/>
      <point x="227" y="623"/>
      <point x="203" y="577"/>
      <point x="203" y="552" type="qcurve"/>
      <point x="203" y="528"/>
      <point x="230" y="464"/>
      <point x="265" y="415" type="qcurve"/>
      <point x="423" y="189" type="line"/>
      <point x="453" y="237"/>
      <point x="498" y="351"/>
      <point x="510" y="416" type="qcurve"/>
      <point x="655" y="416" type="line"/>
      <point x="646" y="374" type="line"/>
      <point x="548" y="374" type="line"/>
      <point x="532" y="310"/>
      <point x="481" y="199"/>
      <point x="448" y="152" type="qcurve"/>
      <point x="555" y="0" type="line"/>
      <point x="490" y="0" type="line"/>
    </contour>
    <contour>
      <point x="196" y="33" type="qcurve"/>
      <point x="248" y="33"/>
      <point x="348" y="92"/>
      <point x="391" y="144" type="qcurve"/>
      <point x="238" y="367" type="line"/>
      <point x="235" y="370" type="line"/>
      <point x="154" y="321"/>
      <point x="69" y="222"/>
      <point x="69" y="161" type="qcurve"/>
      <point x="69" y="102"/>
      <point x="140" y="33"/>
    </contour>
  </outline>
</glyph>
<glyph name="one" format="1">
  <advance width="389"/>
  <unicode hex="0031"/>
  <outline>
    <contour>
      <point x="12" y="46" type="line"/>
      <point x="147" y="46" type="line"/>
      <point x="245" y="508" type="line"/>
      <point x="234" y="496"/>
      <point x="192" y="468"/>
      <point x="142" y="443"/>
      <point x="91" y="426"/>
      <point x="72" y="426" type="qcurve"/>
      <point x="82" y="476" type="line"/>
      <point x="106" y="476"/>
      <point x="165" y="503"/>
      <point x="218" y="537"/>
      <point x="256" y="568"/>
      <point x="258" y="571" type="qcurve"/>
      <point x="309" y="571" type="line"/>
      <point x="198" y="46" type="line"/>
      <point x="319" y="46" type="line"/>
      <point x="309" y="0" type="line"/>
      <point x="2" y="0" type="line"/>
    </contour>
  </outline>
</glyph>
<glyph name="two" format="1">
  <advance width="493"/>
  <unicode hex="0032"/>
  <outline>
    <contour>
      <point x="-13" y="0" type="line"/>
      <point x="-7" y="28"/>
      <point x="17" y="97"/>
      <point x="65" y="168"/>
      <point x="142" y="236"/>
      <point x="201" y="262" type="qcurve"/>
      <point x="250" y="284"/>
      <point x="328" y="321"/>
      <point x="382" y="361"/>
      <point x="411" y="408"/>
      <point x="411" y="440" type="qcurve"/>
      <point x="411" y="458"/>
      <point x="398" y="492"/>
      <point x="370" y="519"/>
      <point x="327" y="535"/>
      <point x="298" y="535" type="qcurve"/>
      <point x="266" y="535"/>
      <point x="210" y="515"/>
      <point x="165" y="487"/>
      <point x="133" y="459"/>
      <point x="125" y="451" type="qcurve"/>
      <point x="99" y="486" type="line"/>
      <point x="103" y="490"/>
      <point x="140" y="521"/>
      <point x="197" y="554"/>
      <point x="272" y="581"/>
      <point x="315" y="581" type="qcurve"/>
      <point x="352" y="581"/>
      <point x="409" y="560"/>
      <point x="447" y="524"/>
      <point x="466" y="477"/>
      <point x="466" y="452" type="qcurve"/>
      <point x="466" y="411"/>
      <point x="434" y="350"/>
      <point x="377" y="302"/>
      <point x="297" y="262"/>
      <point x="250" y="241" type="qcurve"/>
      <point x="210" y="224"/>
      <point x="144" y="174"/>
      <point x="94" y="119"/>
      <point x="61" y="66"/>
      <point x="55" y="46" type="qcurve"/>
      <point x="392" y="46" type="line"/>
      <point x="382" y="0" type="line"/>
    </contour>
  </outline>
</glyph>
<glyph name="six" format="1">
  <advance width="585"/>
  <unicode hex="0036"/>
  <outline>
    <contour>
      <point x="237" y="-10" type="qcurve"/>
      <point x="150" y="-10"/>
      <point x="48" y="106"/>
      <point x="48" y="208" type="qcurve"/>
      <point x="48" y="307"/>
      <point x="99" y="490"/>
      <point x="191" y="631"/>
      <point x="319" y="715"/>
      <point x="397" y="715" type="qcurve"/>
      <point x="464" y="715"/>
      <point x="555" y="641"/>
      <point x="566" y="577" type="qcurve"/>
      <point x="526" y="550" type="line"/>
      <point x="518" y="604"/>
      <point x="443" y="670"/>
      <point x="386" y="670" type="qcurve"/>
      <point x="338" y="670"/>
      <point x="252" y="622"/>
      <point x="180" y="533"/>
      <point x="126" y="408"/>
      <point x="111" y="331" type="qcurve"/>
      <point x="129" y="364"/>
      <point x="180" y="418"/>
      <point x="242" y="455"/>
      <point x="311" y="475"/>
      <point x="346" y="475" type="qcurve"/>
      <point x="388" y="475"/>
      <point x="457" y="444"/>
      <point x="505" y="391"/>
      <point x="532" y="319"/>
      <point x="532" y="277" type="qcurve"/>
      <point x="532" y="219"/>
      <point x="482" y="115"/>
      <point x="400" y="36"/>
      <point x="294" y="-10"/>
    </contour>
    <contour>
      <point x="248" y="35" type="qcurve"/>
      <point x="292" y="35"/>
      <point x="376" y="73"/>
      <point x="442" y="137"/>
      <point x="482" y="221"/>
      <point x="482" y="268" type="qcurve"/>
      <point x="482" y="302"/>
      <point x="460" y="362"/>
      <point x="420" y="406"/>
      <point x="365" y="432"/>
      <point x="332" y="432" type="qcurve"/>
      <point x="288" y="432"/>
      <point x="204" y="394"/>
      <point x="138" y="329"/>
      <point x="97" y="245"/>
      <point x="97" y="199" type="qcurve"/>
      <point x="97" y="165"/>
      <point x="119" y="105"/>
      <point x="159" y="61"/>
      <point x="215" y="35"/>
    </contour>
  </outline>
</glyph>
<glyph name="less" format="1">
  <advance width="544"/>
  <unicode hex="003C"/>
  <outline>
    <contour>
      <point x="31" y="273" type="line"/>
      <point x="449" y="524" type="line"/>
      <point x="449" y="470" type="line"/>
      <point x="103" y="259" type="line"/>
      <point x="449" y="48" type="line"/>
      <point x="449" y="-7" type="line"/>
      <point x="31" y="243" type="line"/>
    </contour>
  </outline>
</glyph>
<glyph name="T" format="1">
  <advance width="579"/>
  <unicode hex="0054"/>
  <outline>
    <contour>
      <point x="374" y="707" type="move" name="top"/>
    </contour>
    <contour>
      <point x="223" y="0" type="move" name="bottom"/>
    </contour>
    <contour>
      <point x="339" y="664" type="line"/>
      <point x="93" y="664" type="line"/>
      <point x="102" y="710" type="line"/>
      <point x="646" y="710" type="line"/>
      <point x="636" y="664" type="line"/>
      <point x="390" y="664" type="line"/>
      <point x="248" y="0" type="line"/>
      <point x="198" y="0" type="line"/>
    </contour>
  </outline>
</glyph>
<glyph name="j" format="1">
  <advance width="209"/>
  <unicode hex="006A"/>
  <outline>
    <contour>
      <point x="-109" y="-177" type="qcurve"/>
      <point x="-139" y="-177"/>
      <point x="-188" y="-160"/>
      <point x="-205" y="-140" type="qcurve"/>
      <point x="-171" y="-107" type="line"/>
      <point x="-159" y="-121"/>
      <point x="-123" y="-131"/>
      <point x="-104" y="-131" type="qcurve"/>
      <point x="-86" y="-131"/>
      <point x="-49" y="-116"/>
      <point x="-17" y="-89"/>
      <point x="7" y="-52"/>
      <point x="12" y="-30" type="qcurve"/>
      <point x="129" y="520" type="line"/>
      <point x="179" y="520" type="line"/>
      <point x="63" y="-28" type="line"/>
      <point x="56" y="-61"/>
      <point x="20" y="-115"/>
      <point x="-28" y="-155"/>
      <point x="-83" y="-177"/>
    </contour>
    <contour>
      <point x="174" y="730" type="line"/>
      <point x="224" y="730" type="line"/>
      <point x="204" y="638" type="line"/>
      <point x="154" y="638" type="line"/>
    </contour>
  </outline>
</glyph>
<glyph name="r" format="1">
  <advance width="333"/>
  <unicode hex="0072"/>
  <outline>
    <contour>
      <point x="236" y="520" type="move" name="top"/>
    </contour>
    <contour>
      <point x="39" y="0" type="move" name="bottom"/>
    </contour>
    <contour>
      <point x="122" y="520" type="line"/>
      <point x="170" y="520" type="line"/>
      <point x="142" y="392" type="line"/>
      <point x="184" y="452"/>
      <point x="293" y="521"/>
      <point x="344" y="521" type="qcurve"/>
      <point x="354" y="521"/>
      <point x="358" y="520" type="qcurve"/>
      <point x="348" y="475" type="line"/>
      <point x="281" y="473"/>
      <point x="166" y="394"/>
      <point x="131" y="325" type="qcurve"/>
      <point x="62" y="0" type="line"/>
      <point x="12" y="0" type="line"/>
    </contour>
  </outline>
</glyph>
<glyph name="z" format="1">
  <advance width="463"/>
  <unicode hex="007A"/>
  <outline>
    <contour>
      <point x="282" y="520" type="move" name="top"/>
    </contour>
    <contour>
      <point x="-28" y="36" type="line"/>
      <point x="412" y="481" type="line"/>
      <point x="73" y="481" type="line"/>
      <point x="82" y="520" type="line"/>
      <point x="478" y="520" type="line"/>
      <point x="470" y="484" type="line"/>
      <point x="32" y="39" type="line"/>
      <point x="375" y="39" type="line"/>
      <point x="366" y="0" type="line"/>
      <point x="-36" y="0" type="line"/>
    </contour>
  </outline>
</glyph>
<glyph name="braceright" format="1">
  <advance width="238"/>
  <unicode hex="007D"/>
  <outline>
    <contour>
      <point x="133" y="697" type="line"/>
      <point x="142" y="740" type="line"/>
      <point x="218" y="740" type="line"/>
      <point x="222" y="740"/>
      <point x="235" y="733"/>
      <point x="235" y="719" type="qcurve"/>
      <point x="235" y="713"/>
      <point x="234" y="710" type="qcurve"/>
      <point x="174" y="431" type="line"/>
      <point x="173" y="429"/>
      <point x="173" y="421"/>
      <point x="173" y="416" type="qcurve"/>
      <point x="173" y="404"/>
      <point x="184" y="381"/>
      <point x="198" y="381" type="qcurve"/>
      <point x="189" y="341" type="line"/>
      <point x="171" y="339"/>
      <point x="148" y="307"/>
      <point x="144" y="289" type="qcurve"/>
      <point x="83" y="-1" type="line"/>
      <point x="79" y="-18"/>
      <point x="62" y="-31"/>
      <point x="54" y="-31" type="qcurve"/>
      <point x="-22" y="-31" type="line"/>
      <point x="-13" y="12" type="line"/>
      <point x="39" y="12" type="line"/>
      <point x="100" y="300" type="line"/>
      <point x="102" y="309"/>
      <point x="119" y="346"/>
      <point x="136" y="360" type="qcurve"/>
      <point x="129" y="369"/>
      <point x="124" y="390"/>
      <point x="124" y="400" type="qcurve"/>
      <point x="124" y="412"/>
      <point x="126" y="420" type="qcurve"/>
      <point x="185" y="697" type="line"/>
    </contour>
  </outline>
</glyph>
<glyph name="yen" format="1">
  <advance width="642"/>
  <unicode hex="00A5"/>
  <outline>
    <contour>
      <point x="404" y="357" type="line"/>
      <point x="487" y="357" type="line"/>
      <point x="479" y="319" type="line"/>
      <point x="375" y="319" type="line"/>
      <point x="333" y="268" type="line"/>
      <point x="328" y="242" type="line"/>
      <point x="463" y="242" type="line"/>
      <point x="456" y="205" type="line"/>
      <point x="320" y="205" type="line"/>
      <point x="276" y="0" type="line"/>
      <point x="225" y="0" type="line"/>
      <point x="269" y="205" type="line"/>
      <point x="134" y="205" type="line"/>
      <point x="142" y="242" type="line"/>
      <point x="277" y="242" type="line"/>
      <point x="283" y="270" type="line"/>
      <point x="264" y="319" type="line"/>
      <point x="159" y="319" type="line"/>
      <point x="167" y="357" type="line"/>
      <point x="251" y="357" type="line"/>
      <point x="112" y="710" type="line"/>
      <point x="169" y="710" type="line"/>
      <point x="318" y="317" type="line"/>
      <point x="636" y="710" type="line"/>
      <point x="693" y="710" type="line"/>
    </contour>
  </outline>
</glyph>
<glyph name="macron" format="1">
  <advance width="372"/>
  <unicode hex="00AF"/>
  <outline>
    <contour>
      <point x="195" y="520" type="move" name="_top"/>
    </contour>
    <contour>
      <point x="62" y="671" type="line"/>
      <point x="70" y="708" type="line"/>
      <point x="342" y="708" type="line"/>
      <point x="334" y="671" type="line"/>
    </contour>
  </outline>
</glyph>
<glyph name="plusminus" format="1">
  <advance width="484"/>
  <unicode hex="00B1"/>
  <outline>
    <contour>
      <point x="71" y="70" type="line"/>
      <point x="71" y="113" type="line"/>
      <point x="385" y="113" type="line"/>
      <point x="385" y="70" type="line"/>
    </contour>
    <contour>
      <point x="385" y="382" type="line"/>
      <point x="385" y="339" type="line"/>
      <point x="252" y="339" type="line"/>
      <point x="252" y="195" type="line"/>
      <point x="205" y="195" type="line"/>
      <point x="205" y="339" type="line"/>
      <point x="71" y="339" type="line"/>
      <point x="71" y="382" type="line"/>
      <point x="205" y="382" type="line"/>
      <point x="205" y="526" type="line"/>
      <point x="252" y="526" type="line"/>
      <point x="252" y="382" type="line"/>
    </contour>
  </outline>
</glyph>
<glyph name="threesuperior" format="1">
  <advance width="370"/>
  <unicode hex="00B3"/>
  <outline>
    <contour>
      <point x="205" y="407" type="qcurve"/>
      <point x="146" y="407"/>
      <point x="82" y="458"/>
      <point x="77" y="499" type="qcurve"/>
      <point x="105" y="520" type="line"/>
      <point x="105" y="488"/>
      <point x="158" y="443"/>
      <point x="211" y="443" type="qcurve"/>
      <point x="237" y="443"/>
      <point x="284" y="456"/>
      <point x="320" y="479"/>
      <point x="342" y="510"/>
      <point x="342" y="529" type="qcurve"/>
      <point x="342" y="561"/>
      <point x="275" y="598"/>
      <point x="216" y="598" type="qcurve"/>
      <point x="195" y="598" type="line"/>
      <point x="201" y="630" type="line"/>
      <point x="223" y="630" type="line"/>
      <point x="291" y="630"/>
      <point x="368" y="672"/>
      <point x="368" y="711" type="qcurve"/>
      <point x="368" y="742"/>
      <point x="317" y="778"/>
      <point x="277" y="778" type="qcurve"/>
      <point x="238" y="778"/>
      <point x="173" y="747"/>
      <point x="154" y="721" type="qcurve"/>
      <point x="135" y="747" type="line"/>
      <point x="158" y="776"/>
      <point x="239" y="811"/>
      <point x="284" y="811" type="qcurve"/>
      <point x="340" y="811"/>
      <point x="406" y="759"/>
      <point x="406" y="717" type="qcurve"/>
      <point x="406" y="679"/>
      <point x="352" y="626"/>
      <point x="300" y="615" type="qcurve"/>
      <point x="336" y="608"/>
      <point x="377" y="563"/>
      <point x="377" y="531" type="qcurve"/>
      <point x="377" y="503"/>
      <point x="347" y="457"/>
      <point x="299" y="425"/>
      <point x="237" y="407"/>
    </contour>
  </outline>
</glyph>
<glyph name="mu" format="1">
  <advance width="591"/>
  <unicode hex="00B5"/>
  <outline>
    <contour>
      <point x="131" y="520" type="line"/>
      <point x="181" y="520" type="line"/>
      <point x="119" y="227" type="line"/>
      <point x="108" y="177"/>
      <point x="108" y="142" type="qcurve"/>
      <point x="108" y="35"/>
      <point x="202" y="35" type="qcurve"/>
      <point x="232" y="35"/>
      <point x="296" y="58"/>
      <point x="355" y="99"/>
      <point x="406" y="157"/>
      <point x="424" y="192" type="qcurve"/>
      <point x="494" y="520" type="line"/>
      <point x="545" y="520" type="line"/>
      <point x="449" y="70" type="line"/>
      <point x="448" y="67"/>
      <point x="448" y="60" type="qcurve"/>
      <point x="448" y="45"/>
      <point x="465" y="45" type="qcurve"/>
      <point x="454" y="0" type="line"/>
      <point x="419" y="0"/>
      <point x="402" y="23"/>
      <point x="402" y="40" type="qcurve"/>
      <point x="402" y="42"/>
      <point x="405" y="63"/>
      <point x="409" y="89"/>
      <point x="414" y="115"/>
      <point x="416" y="123" type="qcurve"/>
      <point x="396" y="94"/>
      <point x="343" y="45"/>
      <point x="284" y="10"/>
      <point x="221" y="-10"/>
      <point x="190" y="-10" type="qcurve"/>
      <point x="142" y="-10"/>
      <point x="91" y="39"/>
      <point x="85" y="82" type="qcurve"/>
      <point x="25" y="-212" type="line"/>
      <point x="-25" y="-212" type="line"/>
    </contour>
  </outline>
</glyph>
<glyph name="paragraph" format="1">
  <advance width="565"/>
  <unicode hex="00B6"/>
  <outline>
    <contour>
      <point x="64" y="424" type="qcurve"/>
      <point x="64" y="488"/>
      <point x="110" y="594"/>
      <point x="195" y="669"/>
      <point x="315" y="710"/>
      <point x="389" y="710" type="qcurve"/>
      <point x="605" y="710" type="line"/>
      <point x="596" y="669" type="line"/>
      <point x="530" y="669" type="line"/>
      <point x="370" y="-80" type="line"/>
      <point x="326" y="-80" type="line"/>
      <point x="394" y="237" type="line"/>
      <point x="318" y="237" type="line"/>
      <point x="250" y="-80" type="line"/>
      <point x="206" y="-80" type="line"/>
      <point x="273" y="237" type="line"/>
      <point x="173" y="239"/>
      <point x="64" y="338"/>
    </contour>
    <contour>
      <point x="109" y="434" type="qcurve"/>
      <point x="109" y="395"/>
      <point x="136" y="338"/>
      <point x="182" y="301"/>
      <point x="246" y="281"/>
      <point x="282" y="279" type="qcurve"/>
      <point x="365" y="669" type="line"/>
      <point x="304" y="669"/>
      <point x="209" y="633"/>
      <point x="143" y="571"/>
      <point x="109" y="485"/>
    </contour>
    <contour>
      <point x="485" y="669" type="line"/>
      <point x="410" y="669" type="line"/>
      <point x="327" y="279" type="line"/>
      <point x="402" y="279" type="line"/>
    </contour>
  </outline>
</glyph>
<glyph name="ordmasculine" format="1">
  <advance width="431"/>
  <unicode hex="00BA"/>
  <outline>
    <contour>
      <point x="227" y="519" type="move" name="top"/>
    </contour>
    <contour>
      <point x="226" y="0" type="move" name="bottom"/>
    </contour>
    <contour>
      <point x="223" y="348" type="qcurve"/>
      <point x="191" y="348"/>
      <point x="141" y="371"/>
      <point x="106" y="412"/>
      <point x="88" y="465"/>
      <point x="88" y="495" type="qcurve"/>
      <point x="88" y="537"/>
      <point x="123" y="615"/>
      <point x="181" y="674"/>
      <point x="258" y="710"/>
      <point x="300" y="710" type="qcurve"/>
      <point x="331" y="710"/>
      <point x="382" y="687"/>
      <point x="418" y="647"/>
      <point x="437" y="593"/>
      <point x="437" y="562" type="qcurve"/>
      <point x="437" y="521"/>
      <point x="402" y="444"/>
      <point x="343" y="384"/>
      <point x="266" y="348"/>
    </contour>
    <contour>
      <point x="231" y="385" type="qcurve"/>
      <point x="261" y="385"/>
      <point x="319" y="413"/>
      <point x="365" y="460"/>
      <point x="393" y="522"/>
      <point x="393" y="556" type="qcurve"/>
      <point x="393" y="605"/>
      <point x="337" y="671"/>
      <point x="292" y="671" type="qcurve"/>
      <point x="262" y="671"/>
      <point x="205" y="644"/>
      <point x="159" y="597"/>
      <point x="131" y="535"/>
      <point x="131" y="500" type="qcurve"/>
      <point x="131" y="451"/>
      <point x="186" y="385"/>
    </contour>
  </outline>
</glyph>
<glyph name="onehalf" format="1">
  <advance width="795"/>
  <unicode hex="00BD"/>
  <outline>
    <contour>
      <point x="407" y="0" type="line"/>
      <point x="423" y="76"/>
      <point x="500" y="157"/>
      <point x="563" y="180" type="qcurve"/>
      <point x="588" y="189"/>
      <point x="642" y="207"/>
      <point x="686" y="232"/>
      <point x="714" y="269"/>
      <point x="714" y="297" type="qcurve"/>
      <point x="714" y="325"/>
      <point x="675" y="364"/>
      <point x="632" y="364" type="qcurve"/>
      <point x="608" y="364"/>
      <point x="567" y="352"/>
      <point x="534" y="335"/>
      <point x="509" y="315"/>
      <point x="500" y="306" type="qcurve"/>
      <point x="481" y="331" type="line"/>
      <point x="485" y="335"/>
      <point x="510" y="357"/>
      <point x="552" y="380"/>
      <point x="608" y="398"/>
      <point x="643" y="398" type="qcurve"/>
      <point x="700" y="398"/>
      <point x="754" y="344"/>
      <point x="754" y="305" type="qcurve"/>
      <point x="754" y="272"/>
      <point x="727" y="226"/>
      <point x="682" y="194"/>
      <point x="624" y="171"/>
      <point x="592" y="160" type="qcurve"/>
      <point x="557" y="148"/>
      <point x="511" y="116"/>
      <point x="483" y="82"/>
      <point x="469" y="48"/>
      <point x="466" y="34" type="qcurve"/>
      <point x="700" y="34" type="line"/>
      <point x="692" y="0" type="line"/>
    </contour>
    <contour>
      <point x="25" y="21" type="line"/>
      <point x="698" y="713" type="line"/>
      <point x="721" y="690" type="line"/>
      <point x="48" y="-3" type="line"/>
    </contour>
    <contour>
      <point x="258" y="367" type="line"/>
      <point x="251" y="332" type="line"/>
      <point x="66" y="332" type="line"/>
      <point x="73" y="367" type="line"/>
      <point x="151" y="367" type="line"/>
      <point x="219" y="689" type="line"/>
      <point x="213" y="683"/>
      <point x="188" y="666"/>
      <point x="159" y="651"/>
      <point x="130" y="641"/>
      <point x="118" y="641" type="qcurve"/>
      <point x="125" y="676" type="line"/>
      <point x="140" y="676"/>
      <point x="176" y="692"/>
      <point x="206" y="712"/>
      <point x="227" y="730"/>
      <point x="228" y="731" type="qcurve"/>
      <point x="264" y="731" type="line"/>
      <point x="186" y="367" type="line"/>
    </contour>
  </outline>
</glyph>
<glyph name="Atilde" format="1">
  <advance width="649"/>
  <unicode hex="00C3"/>
  <outline>
    <contour>
      <point x="394" y="710" type="line"/>
      <point x="438" y="710" type="line"/>
      <point x="571" y="0" type="line"/>
      <point x="517" y="0" type="line"/>
      <point x="473" y="234" type="line"/>
      <point x="154" y="234" type="line"/>
      <point x="12" y="0" type="line"/>
      <point x="-43" y="0" type="line"/>
    </contour>
    <contour>
      <point x="469" y="276" type="line"/>
      <point x="403" y="648" type="line"/>
      <point x="175" y="276" type="line"/>
    </contour>
    <contour>
      <point x="496" y="834" type="qcurve"/>
      <point x="475" y="834"/>
      <point x="445" y="846"/>
      <point x="421" y="861"/>
      <point x="399" y="874"/>
      <point x="384" y="874" type="qcurve"/>
      <point x="368" y="874"/>
      <point x="346" y="860"/>
      <point x="333" y="843"/>
      <point x="326" y="828"/>
      <point x="326" y="826" type="qcurve"/>
      <point x="292" y="826" type="line"/>
      <point x="293" y="830"/>
      <point x="305" y="857"/>
      <point x="329" y="886"/>
      <point x="365" y="909"/>
      <point x="391" y="909" type="qcurve"/>
      <point x="410" y="909"/>
      <point x="437" y="896"/>
      <point x="461" y="881"/>
      <point x="485" y="869"/>
      <point x="503" y="869" type="qcurve"/>
      <point x="522" y="869"/>
      <point x="546" y="883"/>
      <point x="561" y="900"/>
      <point x="568" y="915"/>
      <point x="568" y="917" type="qcurve"/>
      <point x="601" y="917" type="line"/>
      <point x="600" y="912"/>
      <point x="588" y="885"/>
      <point x="563" y="857"/>
      <point x="524" y="834"/>
    </contour>
  </outline>
</glyph>
<glyph name="Igrave" format="1">
  <advance width="233"/>
  <unicode hex="00CC"/>
  <outline>
    <contour>
      <point x="178" y="709" type="line"/>
      <point x="229" y="709" type="line"/>
      <point x="78" y="0" type="line"/>
      <point x="27" y="0" type="line"/>
    </contour>
    <contour>
      <point x="162" y="918" type="line"/>
      <point x="217" y="918" type="line"/>
      <point x="258" y="833" type="line"/>
      <point x="221" y="817" type="line"/>
    </contour>
  </outline>
</glyph>
<glyph name="Iacute" format="1">
  <advance width="233"/>
  <unicode hex="00CD"/>
  <outline>
    <contour>
      <point x="178" y="709" type="line"/>
      <point x="229" y="709" type="line"/>
      <point x="78" y="0" type="line"/>
      <point x="27" y="0" type="line"/>
    </contour>
    <contour>
      <point x="218" y="816" type="line"/>
      <point x="187" y="832" type="line"/>
      <point x="263" y="917" type="line"/>
      <point x="320" y="917" type="line"/>
    </contour>
  </outline>
</glyph>
<glyph name="Ntilde" format="1">
  <advance width="741"/>
  <unicode hex="00D1"/>
  <outline>
    <contour>
      <point x="178" y="710" type="line"/>
      <point x="218" y="710" type="line"/>
      <point x="554" y="85" type="line"/>
      <point x="686" y="709" type="line"/>
      <point x="737" y="709" type="line"/>
      <point x="586" y="0" type="line"/>
      <point x="541" y="0" type="line"/>
      <point x="209" y="614" type="line"/>
      <point x="78" y="0" type="line"/>
      <point x="27" y="0" type="line"/>
    </contour>
    <contour>
      <point x="547" y="834" type="qcurve"/>
      <point x="526" y="834"/>
      <point x="496" y="846"/>
      <point x="472" y="861"/>
      <point x="450" y="874"/>
      <point x="435" y="874" type="qcurve"/>
      <point x="419" y="874"/>
      <point x="397" y="860"/>
      <point x="384" y="843"/>
      <point x="377" y="828"/>
      <point x="377" y="826" type="qcurve"/>
      <point x="343" y="826" type="line"/>
      <point x="344" y="830"/>
      <point x="356" y="857"/>
      <point x="380" y="886"/>
      <point x="416" y="909"/>
      <point x="442" y="909" type="qcurve"/>
      <point x="461" y="909"/>
      <point x="488" y="896"/>
      <point x="512" y="881"/>
      <point x="536" y="869"/>
      <point x="554" y="869" type="qcurve"/>
      <point x="573" y="869"/>
      <point x="597" y="883"/>
      <point x="612" y="900"/>
      <point x="619" y="915"/>
      <point x="619" y="917" type="qcurve"/>
      <point x="652" y="917" type="line"/>
      <point x="651" y="912"/>
      <point x="639" y="885"/>
      <point x="614" y="857"/>
      <point x="575" y="834"/>
    </contour>
  </outline>
</glyph>
<glyph name="Otilde" format="1">
  <advance width="724"/>
  <unicode hex="00D5"/>
  <outline>
    <contour>
      <point x="297" y="-5" type="qcurve"/>
      <point x="237" y="-5"/>
      <point x="144" y="43"/>
      <point x="81" y="124"/>
      <point x="48" y="230"/>
      <point x="48" y="287" type="qcurve"/>
      <point x="48" y="369"/>
      <point x="116" y="523"/>
      <point x="228" y="643"/>
      <point x="374" y="715"/>
      <point x="451" y="715" type="qcurve"/>
      <point x="511" y="715"/>
      <point x="603" y="665"/>
      <point x="666" y="583"/>
      <point x="698" y="477"/>
      <point x="698" y="421" type="qcurve"/>
      <point x="698" y="340"/>
      <point x="630" y="186"/>
      <point x="518" y="67"/>
      <point x="374" y="-5"/>
    </contour>
    <contour>
      <point x="307" y="42" type="qcurve"/>
      <point x="376" y="42"/>
      <point x="500" y="109"/>
      <point x="592" y="216"/>
      <point x="646" y="350"/>
      <point x="646" y="416" type="qcurve"/>
      <point x="646" y="467"/>
      <point x="618" y="558"/>
      <point x="565" y="627"/>
      <point x="488" y="668"/>
      <point x="440" y="668" type="qcurve"/>
      <point x="371" y="668"/>
      <point x="247" y="601"/>
      <point x="154" y="494"/>
      <point x="100" y="360"/>
      <point x="100" y="293" type="qcurve"/>
      <point x="100" y="242"/>
      <point x="128" y="151"/>
      <point x="181" y="82"/>
      <point x="258" y="42"/>
    </contour>
    <contour>
      <point x="534" y="834" type="qcurve"/>
      <point x="513" y="834"/>
      <point x="483" y="846"/>
      <point x="459" y="861"/>
      <point x="437" y="874"/>
      <point x="422" y="874" type="qcurve"/>
      <point x="406" y="874"/>
      <point x="384" y="860"/>
      <point x="371" y="843"/>
      <point x="364" y="828"/>
      <point x="364" y="826" type="qcurve"/>
      <point x="330" y="826" type="line"/>
      <point x="331" y="830"/>
      <point x="343" y="857"/>
      <point x="367" y="886"/>
      <point x="403" y="909"/>
      <point x="429" y="909" type="qcurve"/>
      <point x="448" y="909"/>
      <point x="475" y="896"/>
      <point x="499" y="881"/>
      <point x="523" y="869"/>
      <point x="541" y="869" type="qcurve"/>
      <point x="560" y="869"/>
      <point x="584" y="883"/>
      <point x="599" y="900"/>
      <point x="606" y="915"/>
      <point x="606" y="917" type="qcurve"/>
      <point x="639" y="917" type="line"/>
      <point x="638" y="912"/>
      <point x="626" y="885"/>
      <point x="601" y="857"/>
      <point x="562" y="834"/>
    </contour>
  </outline>
</glyph>
<glyph name="agrave" format="1">
  <advance width="591"/>
  <unicode hex="00E0"/>
  <outline>
    <contour>
      <point x="212" y="-10" type="qcurve"/>
      <point x="169" y="-10"/>
      <point x="100" y="26"/>
      <point x="52" y="86"/>
      <point x="27" y="165"/>
      <point x="27" y="209" type="qcurve"/>
      <point x="27" y="270"/>
      <point x="75" y="385"/>
      <point x="156" y="475"/>
      <point x="260" y="529"/>
      <point x="317" y="529" type="qcurve"/>
      <point x="350" y="529"/>
      <point x="403" y="509"/>
      <point x="445" y="476"/>
      <point x="475" y="432"/>
      <point x="484" y="407" type="qcurve"/>
      <point x="508" y="520" type="line"/>
      <point x="559" y="520" type="line"/>
      <point x="463" y="72" type="line"/>
      <point x="461" y="64"/>
      <point x="461" y="60" type="qcurve"/>
      <point x="461" y="45"/>
      <point x="478" y="45" type="qcurve"/>
      <point x="468" y="0" type="line"/>
      <point x="463" y="-1"/>
      <point x="456" y="-2"/>
      <point x="453" y="-2" type="qcurve"/>
      <point x="433" y="-2"/>
      <point x="412" y="18"/>
      <point x="412" y="34" type="qcurve"/>
      <point x="412" y="37"/>
      <point x="413" y="46"/>
      <point x="416" y="61"/>
      <point x="420" y="85"/>
      <point x="424" y="104" type="qcurve"/>
      <point x="383" y="52"/>
      <point x="269" y="-10"/>
    </contour>
    <contour>
      <point x="230" y="35" type="qcurve"/>
      <point x="257" y="35"/>
      <point x="321" y="58"/>
      <point x="380" y="96"/>
      <point x="426" y="147"/>
      <point x="435" y="175" type="qcurve"/>
      <point x="471" y="346" type="line"/>
      <point x="467" y="374"/>
      <point x="440" y="424"/>
      <point x="399" y="462"/>
      <point x="347" y="484"/>
      <point x="317" y="484" type="qcurve"/>
      <point x="269" y="484"/>
      <point x="183" y="436"/>
      <point x="118" y="359"/>
      <point x="79" y="263"/>
      <point x="79" y="215" type="qcurve"/>
      <point x="79" y="179"/>
      <point x="101" y="113"/>
      <point x="141" y="64"/>
      <point x="197" y="35"/>
    </contour>
    <contour>
      <point x="299" y="730" type="line"/>
      <point x="354" y="730" type="line"/>
      <point x="395" y="645" type="line"/>
      <point x="358" y="629" type="line"/>
    </contour>
  </outline>
</glyph>
<glyph name="ntilde" format="1">
  <advance width="552"/>
  <unicode hex="00F1"/>
  <outline>
    <contour>
      <point x="122" y="520" type="line"/>
      <point x="169" y="520" type="line"/>
      <point x="142" y="396" type="line"/>
      <point x="163" y="426"/>
      <point x="219" y="475"/>
      <point x="282" y="510"/>
      <point x="349" y="529"/>
      <point x="382" y="529" type="qcurve"/>
      <point x="442" y="529"/>
      <point x="494" y="465"/>
      <point x="494" y="404" type="qcurve"/>
      <point x="494" y="381"/>
      <point x="487" y="329"/>
      <point x="481" y="299" type="qcurve"/>
      <point x="418" y="0" type="line"/>
      <point x="368" y="0" type="line"/>
      <point x="429" y="290" type="line"/>
      <point x="435" y="318"/>
      <point x="440" y="364"/>
      <point x="440" y="383" type="qcurve"/>
      <point x="440" y="483"/>
      <point x="357" y="483" type="qcurve"/>
      <point x="326" y="483"/>
      <point x="260" y="459"/>
      <point x="199" y="415"/>
      <point x="147" y="356"/>
      <point x="130" y="322" type="qcurve"/>
      <point x="62" y="0" type="line"/>
      <point x="12" y="0" type="line"/>
    </contour>
    <contour>
      <point x="401" y="647" type="qcurve"/>
      <point x="380" y="647"/>
      <point x="350" y="659"/>
      <point x="326" y="674"/>
      <point x="304" y="687"/>
      <point x="289" y="687" type="qcurve"/>
      <point x="273" y="687"/>
      <point x="251" y="673"/>
      <point x="238" y="656"/>
      <point x="231" y="641"/>
      <point x="231" y="639" type="qcurve"/>
      <point x="197" y="639" type="line"/>
      <point x="198" y="643"/>
      <point x="210" y="670"/>
      <point x="234" y="699"/>
      <point x="270" y="722"/>
      <point x="296" y="722" type="qcurve"/>
      <point x="315" y="722"/>
      <point x="342" y="709"/>
      <point x="366" y="694"/>
      <point x="390" y="682"/>
      <point x="408" y="682" type="qcurve"/>
      <point x="427" y="682"/>
      <point x="451" y="696"/>
      <point x="466" y="713"/>
      <point x="473" y="728"/>
      <point x="473" y="730" type="qcurve"/>
      <point x="506" y="730" type="line"/>
      <point x="505" y="725"/>
      <point x="493" y="698"/>
      <point x="468" y="670"/>
      <point x="429" y="647"/>
    </contour>
  </outline>
</glyph>
<glyph name="thorn" format="1">
  <advance width="577"/>
  <unicode hex="00FE"/>
  <outline>
    <contour>
      <point x="163" y="710" type="line"/>
      <point x="214" y="710" type="line"/>
      <point x="152" y="421" type="line"/>
      <point x="194" y="468"/>
      <point x="292" y="530"/>
      <point x="353" y="530" type="qcurve"/>
      <point x="398" y="530"/>
      <point x="466" y="495"/>
      <point x="511" y="436"/>
      <point x="534" y="361"/>
      <point x="534" y="321" type="qcurve"/>
      <point x="534" y="264"/>
      <point x="490" y="145"/>
      <point x="411" y="48"/>
      <point x="302" y="-14"/>
      <point x="237" y="-14" type="qcurve"/>
      <point x="172" y="-14"/>
      <point x="98" y="45"/>
      <point x="81" y="87" type="qcurve"/>
      <point x="18" y="-213" type="line"/>
      <point x="-33" y="-213" type="line"/>
    </contour>
    <contour>
      <point x="248" y="33" type="qcurve"/>
      <point x="293" y="33"/>
      <point x="378" y="78"/>
      <point x="443" y="154"/>
      <point x="482" y="254"/>
      <point x="482" y="309" type="qcurve"/>
      <point x="482" y="346"/>
      <point x="463" y="410"/>
      <point x="427" y="457"/>
      <point x="374" y="484"/>
      <point x="340" y="484" type="qcurve"/>
      <point x="310" y="484"/>
      <point x="253" y="463"/>
      <point x="201" y="426"/>
      <point x="156" y="378"/>
      <point x="137" y="351" type="qcurve"/>
      <point x="99" y="171" type="line"/>
      <point x="97" y="166"/>
      <point x="97" y="159"/>
      <point x="97" y="156" type="qcurve"/>
      <point x="97" y="131"/>
      <point x="122" y="86"/>
      <point x="163" y="53"/>
      <point x="218" y="33"/>
    </contour>
  </outline>
</glyph>
<glyph name="ebreve" format="1">
  <advance width="529"/>
  <unicode hex="0115"/>
  <outline>
    <contour>
      <point x="224" y="-10" type="qcurve"/>
      <point x="177" y="-10"/>
      <point x="104" y="25"/>
      <point x="53" y="85"/>
      <point x="27" y="165"/>
      <point x="27" y="210" type="qcurve"/>
      <point x="27" y="271"/>
      <point x="74" y="386"/>
      <point x="158" y="475"/>
      <point x="271" y="529"/>
      <point x="337" y="529" type="qcurve"/>
      <point x="368" y="529"/>
      <point x="426" y="511"/>
      <point x="471" y="476"/>
      <point x="498" y="424"/>
      <point x="498" y="390" type="qcurve"/>
      <point x="498" y="240"/>
      <point x="226" y="240" type="qcurve"/>
      <point x="194" y="240"/>
      <point x="123" y="242"/>
      <point x="80" y="245" type="qcurve"/>
      <point x="79" y="237"/>
      <point x="78" y="219"/>
      <point x="78" y="211" type="qcurve"/>
      <point x="78" y="174"/>
      <point x="97" y="108"/>
      <point x="136" y="59"/>
      <point x="195" y="30"/>
      <point x="234" y="30" type="qcurve"/>
      <point x="259" y="30"/>
      <point x="312" y="45"/>
      <point x="360" y="72"/>
      <point x="401" y="111"/>
      <point x="415" y="135" type="qcurve"/>
      <point x="457" y="122" type="line"/>
      <point x="439" y="92"/>
      <point x="388" y="44"/>
      <point x="327" y="9"/>
      <point x="259" y="-10"/>
    </contour>
    <contour>
      <point x="331" y="488" type="qcurve"/>
      <point x="284" y="488"/>
      <point x="205" y="453"/>
      <point x="143" y="396"/>
      <point x="99" y="322"/>
      <point x="88" y="283" type="qcurve"/>
      <point x="130" y="280"/>
      <point x="197" y="278"/>
      <point x="229" y="278" type="qcurve"/>
      <point x="291" y="278"/>
      <point x="376" y="295"/>
      <point x="428" y="325"/>
      <point x="451" y="366"/>
      <point x="451" y="391" type="qcurve"/>
      <point x="451" y="416"/>
      <point x="430" y="453"/>
      <point x="397" y="477"/>
      <point x="353" y="488"/>
    </contour>
    <contour>
      <point x="359" y="666" type="qcurve"/>
      <point x="379" y="666"/>
      <point x="419" y="703"/>
      <point x="427" y="730" type="qcurve"/>
      <point x="459" y="730" type="line"/>
      <point x="455" y="711"/>
      <point x="434" y="677"/>
      <point x="405" y="652"/>
      <point x="371" y="638"/>
      <point x="354" y="638" type="qcurve"/>
      <point x="322" y="638"/>
      <point x="284" y="679"/>
      <point x="284" y="710" type="qcurve"/>
      <point x="284" y="719"/>
      <point x="287" y="730" type="qcurve"/>
      <point x="320" y="730" type="line"/>
      <point x="319" y="725"/>
      <point x="319" y="716" type="qcurve"/>
      <point x="319" y="696"/>
      <point x="342" y="666"/>
    </contour>
  </outline>
</glyph>
<glyph name="gcircumflex" format="1">
  <advance width="586"/>
  <unicode hex="011D"/>
  <outline>
    <contour>
      <point x="244" y="649" type="line"/>
      <point x="353" y="730" type="line"/>
      <point x="390" y="730" type="line"/>
      <point x="465" y="649" type="line"/>
      <point x="432" y="632" type="line"/>
      <point x="364" y="695" type="line"/>
      <point x="270" y="632" type="line"/>
    </contour>
    <contour>
      <point x="165" y="-223" type="qcurve"/>
      <point x="79" y="-223"/>
      <point x="-10" y="-158"/>
      <point x="-29" y="-103" type="qcurve"/>
      <point x="9" y="-80" type="line"/>
      <point x="27" y="-133"/>
      <point x="117" y="-182"/>
      <point x="174" y="-182" type="qcurve"/>
      <point x="211" y="-182"/>
      <point x="283" y="-160"/>
      <point x="342" y="-117"/>
      <point x="385" y="-53"/>
      <point x="394" y="-10" type="qcurve"/>
      <point x="418" y="104" type="line"/>
      <point x="398" y="79"/>
      <point x="348" y="38"/>
      <point x="294" y="8"/>
      <point x="236" y="-8"/>
      <point x="209" y="-8" type="qcurve"/>
      <point x="166" y="-8"/>
      <point x="98" y="28"/>
      <point x="51" y="88"/>
      <point x="26" y="166"/>
      <point x="26" y="209" type="qcurve"/>
      <point x="26" y="269"/>
      <point x="74" y="384"/>
      <point x="155" y="474"/>
      <point x="261" y="529"/>
      <point x="320" y="529" type="qcurve"/>
      <point x="384" y="529"/>
      <point x="465" y="458"/>
      <point x="488" y="407" type="qcurve"/>
      <point x="512" y="520" type="line"/>
      <point x="557" y="520" type="line"/>
      <point x="444" y="-10" type="line"/>
      <point x="433" y="-63"/>
      <point x="378" y="-143"/>
      <point x="302" y="-196"/>
      <point x="212" y="-223"/>
    </contour>
    <contour>
      <point x="231" y="35" type="qcurve"/>
      <point x="262" y="35"/>
      <point x="327" y="60"/>
      <point x="383" y="100"/>
      <point x="425" y="150"/>
      <point x="434" y="175" type="qcurve"/>
      <point x="470" y="346" type="line"/>
      <point x="465" y="376"/>
      <point x="438" y="427"/>
      <point x="398" y="463"/>
      <point x="346" y="484"/>
      <point x="318" y="484" type="qcurve"/>
      <point x="267" y="484"/>
      <point x="180" y="434"/>
      <point x="115" y="357"/>
      <point x="78" y="262"/>
      <point x="78" y="217" type="qcurve"/>
      <point x="78" y="180"/>
      <point x="100" y="114"/>
      <point x="140" y="64"/>
      <point x="196" y="35"/>
    </contour>
  </outline>
</glyph>
<glyph name="Ibreve" format="1">
  <advance width="233"/>
  <unicode hex="012C"/>
  <outline>
    <contour>
      <point x="178" y="709" type="line"/>
      <point x="229" y="709" type="line"/>
      <point x="78" y="0" type="line"/>
      <point x="27" y="0" type="line"/>
    </contour>
    <contour>
      <point x="223" y="853" type="qcurve"/>
      <point x="243" y="853"/>
      <point x="283" y="890"/>
      <point x="291" y="917" type="qcurve"/>
      <point x="323" y="917" type="line"/>
      <point x="319" y="898"/>
      <point x="298" y="864"/>
      <point x="269" y="839"/>
      <point x="235" y="825"/>
      <point x="218" y="825" type="qcurve"/>
      <point x="186" y="825"/>
      <point x="148" y="866"/>
      <point x="148" y="897" type="qcurve"/>
      <point x="148" y="906"/>
      <point x="151" y="917" type="qcurve"/>
      <point x="184" y="917" type="line"/>
      <point x="183" y="912"/>
      <point x="183" y="903" type="qcurve"/>
      <point x="183" y="883"/>
      <point x="206" y="853"/>
    </contour>
  </outline>
</glyph>
<glyph name="Iogonek" format="1">
  <advance width="234"/>
  <unicode hex="012E"/>
  <outline>
    <contour>
      <point x="179" y="709" type="line"/>
      <point x="230" y="709" type="line"/>
      <point x="79" y="0" type="line"/>
      <point x="23" y="-34"/>
      <point x="-20" y="-79"/>
      <point x="-20" y="-102" type="qcurve"/>
      <point x="-20" y="-133"/>
      <point x="19" y="-139" type="qcurve"/>
      <point x="-4" y="-169" type="line"/>
      <point x="-30" y="-163"/>
      <point x="-55" y="-133"/>
      <point x="-55" y="-113" type="qcurve"/>
      <point x="-55" y="-84"/>
      <point x="-12" y="-32"/>
      <point x="38" y="0" type="qcurve"/>
      <point x="28" y="0" type="line"/>
    </contour>
  </outline>
</glyph>
<glyph name="dotlessi" format="1">
  <advance width="201"/>
  <unicode hex="0131"/>
  <outline>
    <contour>
      <point x="41" y="520" type="move" name="top"/>
    </contour>
    <contour>
      <point x="122" y="520" type="line"/>
      <point x="172" y="520" type="line"/>
      <point x="62" y="0" type="line"/>
      <point x="12" y="0" type="line"/>
    </contour>
  </outline>
</glyph>
<glyph name="ij" format="1">
  <advance width="410"/>
  <unicode hex="0133"/>
  <outline>
    <contour>
      <point x="122" y="520" type="line"/>
      <point x="172" y="520" type="line"/>
      <point x="62" y="0" type="line"/>
      <point x="12" y="0" type="line"/>
    </contour>
    <contour>
      <point x="167" y="730" type="line"/>
      <point x="217" y="730" type="line"/>
      <point x="198" y="638" type="line"/>
      <point x="148" y="638" type="line"/>
    </contour>
    <contour>
      <point x="92" y="-177" type="qcurve"/>
      <point x="62" y="-177"/>
      <point x="13" y="-160"/>
      <point x="-4" y="-140" type="qcurve"/>
      <point x="30" y="-107" type="line"/>
      <point x="42" y="-121"/>
      <point x="78" y="-131"/>
      <point x="97" y="-131" type="qcurve"/>
      <point x="115" y="-131"/>
      <point x="152" y="-116"/>
      <point x="184" y="-89"/>
      <point x="208" y="-52"/>
      <point x="213" y="-30" type="qcurve"/>
      <point x="330" y="520" type="line"/>
      <point x="380" y="520" type="line"/>
      <point x="264" y="-28" type="line"/>
      <point x="257" y="-61"/>
      <point x="221" y="-115"/>
      <point x="173" y="-155"/>
      <point x="118" y="-177"/>
    </contour>
    <contour>
      <point x="375" y="730" type="line"/>
      <point x="425" y="730" type="line"/>
      <point x="405" y="638" type="line"/>
      <point x="355" y="638" type="line"/>
    </contour>
  </outline>
</glyph>
<glyph name="Kcommaaccent" format="1">
  <advance width="606"/>
  <unicode hex="0136"/>
  <outline>
    <contour>
      <point x="191" y="-187" type="line"/>
      <point x="220" y="-119" type="line"/>
      <point x="204" y="-119" type="line"/>
      <point x="219" y="-49" type="line"/>
      <point x="267" y="-49" type="line"/>
      <point x="253" y="-119" type="line"/>
      <point x="218" y="-187" type="line"/>
    </contour>
    <contour>
      <point x="178" y="709" type="line"/>
      <point x="229" y="709" type="line"/>
      <point x="137" y="279" type="line"/>
      <point x="619" y="710" type="line"/>
      <point x="678" y="710" type="line"/>
      <point x="332" y="399" type="line"/>
      <point x="541" y="0" type="line"/>
      <point x="483" y="0" type="line"/>
      <point x="293" y="368" type="line"/>
      <point x="125" y="219" type="line"/>
      <point x="78" y="0" type="line"/>
      <point x="27" y="0" type="line"/>
    </contour>
  </outline>
</glyph>
<glyph name="lcaron" format="1">
  <advance width="241"/>
  <unicode hex="013E"/>
  <outline>
    <contour>
      <point x="256" y="645" type="line"/>
      <point x="332" y="730" type="line"/>
      <point x="389" y="730" type="line"/>
      <point x="287" y="629" type="line"/>
    </contour>
    <contour>
      <point x="103" y="-6" type="qcurve"/>
      <point x="69" y="-6"/>
      <point x="31" y="31"/>
      <point x="31" y="63" type="qcurve"/>
      <point x="31" y="74"/>
      <point x="34" y="88" type="qcurve"/>
      <point x="170" y="730" type="line"/>
      <point x="220" y="730" type="line"/>
      <point x="87" y="103" type="line"/>
      <point x="86" y="98"/>
      <point x="85" y="90"/>
      <point x="85" y="85" type="qcurve"/>
      <point x="85" y="64"/>
      <point x="110" y="40"/>
      <point x="134" y="40" type="qcurve"/>
      <point x="145" y="40"/>
      <point x="175" y="45"/>
      <point x="188" y="50" type="qcurve"/>
      <point x="188" y="10" type="line"/>
      <point x="171" y="3"/>
      <point x="120" y="-6"/>
    </contour>
  </outline>
</glyph>
<glyph name="Ncaron" format="1">
  <advance width="741"/>
  <unicode hex="0147"/>
  <outline>
    <contour>
      <point x="385" y="900" type="line"/>
      <point x="418" y="917" type="line"/>
      <point x="486" y="854" type="line"/>
      <point x="580" y="917" type="line"/>
      <point x="606" y="900" type="line"/>
      <point x="497" y="819" type="line"/>
      <point x="460" y="819" type="line"/>
    </contour>
    <contour>
      <point x="178" y="710" type="line"/>
      <point x="218" y="710" type="line"/>
      <point x="554" y="85" type="line"/>
      <point x="686" y="709" type="line"/>
      <point x="737" y="709" type="line"/>
      <point x="586" y="0" type="line"/>
      <point x="541" y="0" type="line"/>
      <point x="209" y="614" type="line"/>
      <point x="78" y="0" type="line"/>
      <point x="27" y="0" type="line"/>
    </contour>
  </outline>
</glyph>
<glyph name="ncaron" format="1">
  <advance width="552"/>
  <unicode hex="0148"/>
  <outline>
    <contour>
      <point x="252" y="713" type="line"/>
      <point x="285" y="730" type="line"/>
      <point x="353" y="667" type="line"/>
      <point x="447" y="730" type="line"/>
      <point x="473" y="713" type="line"/>
      <point x="364" y="632" type="line"/>
      <point x="327" y="632" type="line"/>
    </contour>
    <contour>
      <point x="122" y="520" type="line"/>
      <point x="169" y="520" type="line"/>
      <point x="142" y="396" type="line"/>
      <point x="163" y="426"/>
      <point x="219" y="475"/>
      <point x="282" y="510"/>
      <point x="349" y="529"/>
      <point x="382" y="529" type="qcurve"/>
      <point x="442" y="529"/>
      <point x="494" y="465"/>
      <point x="494" y="404" type="qcurve"/>
      <point x="494" y="381"/>
      <point x="487" y="329"/>
      <point x="481" y="299" type="qcurve"/>
      <point x="418" y="0" type="line"/>
      <point x="368" y="0" type="line"/>
      <point x="429" y="290" type="line"/>
      <point x="435" y="318"/>
      <point x="440" y="364"/>
      <point x="440" y="383" type="qcurve"/>
      <point x="440" y="483"/>
      <point x="357" y="483" type="qcurve"/>
      <point x="326" y="483"/>
      <point x="260" y="459"/>
      <point x="199" y="415"/>
      <point x="147" y="356"/>
      <point x="130" y="322" type="qcurve"/>
      <point x="62" y="0" type="line"/>
      <point x="12" y="0" type="line"/>
    </contour>
  </outline>
</glyph>
<glyph name="oe" format="1">
  <advance width="991"/>
  <unicode hex="0153"/>
  <outline>
    <contour>
      <point x="217" y="-10" type="qcurve"/>
      <point x="174" y="-10"/>
      <point x="103" y="23"/>
      <point x="53" y="81"/>
      <point x="26" y="160"/>
      <point x="26" y="205" type="qcurve"/>
      <point x="26" y="271"/>
      <point x="78" y="388"/>
      <point x="164" y="477"/>
      <point x="275" y="529"/>
      <point x="334" y="529" type="qcurve"/>
      <point x="409" y="529"/>
      <point x="504" y="434"/>
      <point x="511" y="353" type="qcurve"/>
      <point x="553" y="436"/>
      <point x="688" y="529"/>
      <point x="767" y="529" type="qcurve"/>
      <point x="857" y="529"/>
      <point x="956" y="409"/>
      <point x="956" y="308" type="qcurve"/>
      <point x="956" y="275"/>
      <point x="949" y="246"/>
      <point x="947" y="240" type="qcurve"/>
      <point x="516" y="240" type="line"/>
      <point x="513" y="222"/>
      <point x="513" y="205" type="qcurve"/>
      <point x="513" y="167"/>
      <point x="536" y="103"/>
      <point x="578" y="57"/>
      <point x="637" y="30"/>
      <point x="673" y="30" type="qcurve"/>
      <point x="700" y="30"/>
      <point x="754" y="45"/>
      <point x="802" y="71"/>
      <point x="842" y="108"/>
      <point x="855" y="130" type="qcurve"/>
      <point x="896" y="118" type="line"/>
      <point x="878" y="89"/>
      <point x="825" y="42"/>
      <point x="763" y="9"/>
      <point x="695" y="-10"/>
      <point x="662" y="-10" type="qcurve"/>
      <point x="625" y="-10"/>
      <point x="561" y="15"/>
      <point x="511" y="62"/>
      <point x="478" y="126"/>
      <point x="472" y="165" type="qcurve"/>
      <point x="449" y="125"/>
      <point x="391" y="60"/>
      <point x="325" y="15"/>
      <point x="253" y="-10"/>
    </contour>
    <contour>
      <point x="227" y="35" type="qcurve"/>
      <point x="273" y="35"/>
      <point x="362" y="78"/>
      <point x="431" y="152"/>
      <point x="473" y="250"/>
      <point x="473" y="304" type="qcurve"/>
      <point x="473" y="342"/>
      <point x="452" y="408"/>
      <point x="413" y="456"/>
      <point x="358" y="484"/>
      <point x="324" y="484" type="qcurve"/>
      <point x="278" y="484"/>
      <point x="190" y="440"/>
      <point x="121" y="365"/>
      <point x="78" y="266"/>
      <point x="78" y="211" type="qcurve"/>
      <point x="78" y="173"/>
      <point x="99" y="109"/>
      <point x="138" y="62"/>
      <point x="193" y="35"/>
    </contour>
    <contour>
      <point x="906" y="277" type="line"/>
      <point x="909" y="298"/>
      <point x="909" y="318" type="qcurve"/>
      <point x="909" y="356"/>
      <point x="887" y="418"/>
      <point x="848" y="463"/>
      <point x="791" y="488"/>
      <point x="757" y="488" type="qcurve"/>
      <point x="718" y="488"/>
      <point x="644" y="456"/>
      <point x="581" y="400"/>
      <point x="534" y="323"/>
      <point x="522" y="277" type="qcurve"/>
    </contour>
  </outline>
</glyph>
<glyph name="uni015E" format="1">
  <advance width="584"/>
  <unicode hex="015E"/>
  <outline>
    <contour>
      <point x="148" y="-125" type="line"/>
      <point x="161" y="-132"/>
      <point x="203" y="-144"/>
      <point x="227" y="-144" type="qcurve"/>
      <point x="292" y="-144"/>
      <point x="292" y="-99" type="qcurve"/>
      <point x="292" y="-83"/>
      <point x="269" y="-71"/>
      <point x="251" y="-71" type="qcurve"/>
      <point x="231" y="-71"/>
      <point x="185" y="-81"/>
      <point x="172" y="-85" type="qcurve"/>
      <point x="230" y="-6" type="line"/>
      <point x="80" y="-3"/>
      <point x="-5" y="100" type="qcurve"/>
      <point x="31" y="141" type="line"/>
      <point x="63" y="94"/>
      <point x="174" y="39"/>
      <point x="252" y="39" type="qcurve"/>
      <point x="353" y="39"/>
      <point x="471" y="123"/>
      <point x="471" y="202" type="qcurve"/>
      <point x="471" y="257"/>
      <point x="378" y="314"/>
      <point x="290" y="334" type="qcurve"/>
      <point x="245" y="344"/>
      <point x="176" y="368"/>
      <point x="128" y="401"/>
      <point x="103" y="448"/>
      <point x="103" y="481" type="qcurve"/>
      <point x="103" y="536"/>
      <point x="147" y="623"/>
      <point x="223" y="683"/>
      <point x="328" y="715"/>
      <point x="389" y="715" type="qcurve"/>
      <point x="455" y="715"/>
      <point x="550" y="674"/>
      <point x="582" y="632" type="qcurve"/>
      <point x="547" y="592" type="line"/>
      <point x="499" y="669"/>
      <point x="379" y="669" type="qcurve"/>
      <point x="320" y="669"/>
      <point x="237" y="642"/>
      <point x="183" y="596"/>
      <point x="158" y="533"/>
      <point x="158" y="496" type="qcurve"/>
      <point x="158" y="470"/>
      <point x="179" y="434"/>
      <point x="221" y="408"/>
      <point x="284" y="388"/>
      <point x="326" y="378" type="qcurve"/>
      <point x="371" y="367"/>
      <point x="446" y="342"/>
      <point x="498" y="305"/>
      <point x="527" y="254"/>
      <point x="527" y="217" type="qcurve"/>
      <point x="527" y="165"/>
      <point x="488" y="84"/>
      <point x="417" y="28"/>
      <point x="320" y="-3"/>
      <point x="263" y="-5" type="qcurve"/>
      <point x="226" y="-53" type="line"/>
      <point x="235" y="-49"/>
      <point x="256" y="-47"/>
      <point x="264" y="-47" type="qcurve"/>
      <point x="322" y="-47"/>
      <point x="322" y="-93" type="qcurve"/>
      <point x="322" y="-131"/>
      <point x="268" y="-171"/>
      <point x="217" y="-171" type="qcurve"/>
      <point x="191" y="-171"/>
      <point x="146" y="-160"/>
      <point x="129" y="-152" type="qcurve"/>
    </contour>
  </outline>
</glyph>
<glyph name="uni0162" format="1">
  <advance width="578"/>
  <unicode hex="0162"/>
  <outline>
    <contour>
      <point x="338" y="664" type="line"/>
      <point x="92" y="664" type="line"/>
      <point x="101" y="710" type="line"/>
      <point x="645" y="710" type="line"/>
      <point x="635" y="664" type="line"/>
      <point x="389" y="664" type="line"/>
      <point x="247" y="0" type="line"/>
      <point x="239" y="0" type="line"/>
      <point x="198" y="-53" type="line"/>
      <point x="207" y="-49"/>
      <point x="228" y="-47"/>
      <point x="236" y="-47" type="qcurve"/>
      <point x="294" y="-47"/>
      <point x="294" y="-93" type="qcurve"/>
      <point x="294" y="-131"/>
      <point x="240" y="-171"/>
      <point x="189" y="-171" type="qcurve"/>
      <point x="163" y="-171"/>
      <point x="118" y="-160"/>
      <point x="101" y="-152" type="qcurve"/>
      <point x="120" y="-125" type="line"/>
      <point x="133" y="-132"/>
      <point x="175" y="-144"/>
      <point x="199" y="-144" type="qcurve"/>
      <point x="264" y="-144"/>
      <point x="264" y="-99" type="qcurve"/>
      <point x="264" y="-83"/>
      <point x="241" y="-71"/>
      <point x="223" y="-71" type="qcurve"/>
      <point x="203" y="-71"/>
      <point x="157" y="-81"/>
      <point x="144" y="-85" type="qcurve"/>
      <point x="207" y="0" type="line"/>
      <point x="197" y="0" type="line"/>
    </contour>
  </outline>
</glyph>
<glyph name="Tcaron" format="1">
  <advance width="579"/>
  <unicode hex="0164"/>
  <outline>
    <contour>
      <point x="297" y="900" type="line"/>
      <point x="330" y="917" type="line"/>
      <point x="398" y="854" type="line"/>
      <point x="492" y="917" type="line"/>
      <point x="518" y="900" type="line"/>
      <point x="409" y="819" type="line"/>
      <point x="372" y="819" type="line"/>
    </contour>
    <contour>
      <point x="339" y="664" type="line"/>
      <point x="93" y="664" type="line"/>
      <point x="102" y="710" type="line"/>
      <point x="646" y="710" type="line"/>
      <point x="636" y="664" type="line"/>
      <point x="390" y="664" type="line"/>
      <point x="248" y="0" type="line"/>
      <point x="198" y="0" type="line"/>
    </contour>
  </outline>
</glyph>
<glyph name="tbar" format="1">
  <advance width="307"/>
  <unicode hex="0167"/>
  <outline>
    <contour>
      <point x="39" y="355" type="line"/>
      <point x="107" y="355" type="line"/>
      <point x="134" y="479" type="line"/>
      <point x="65" y="479" type="line"/>
      <point x="74" y="520" type="line"/>
      <point x="143" y="520" type="line"/>
      <point x="181" y="698" type="line"/>
      <point x="231" y="698" type="line"/>
      <point x="193" y="520" type="line"/>
      <point x="308" y="520" type="line"/>
      <point x="300" y="479" type="line"/>
      <point x="184" y="479" type="line"/>
      <point x="157" y="355" type="line"/>
      <point x="273" y="355" type="line"/>
      <point x="266" y="319" type="line"/>
      <point x="149" y="319" type="line"/>
      <point x="109" y="129" type="line"/>
      <point x="103" y="99"/>
      <point x="103" y="88" type="qcurve"/>
      <point x="103" y="64"/>
      <point x="131" y="41"/>
      <point x="153" y="41" type="qcurve"/>
      <point x="167" y="41"/>
      <point x="194" y="47"/>
      <point x="217" y="56"/>
      <point x="232" y="63"/>
      <point x="235" y="65" type="qcurve"/>
      <point x="241" y="25" type="line"/>
      <point x="236" y="22"/>
      <point x="215" y="11"/>
      <point x="186" y="1"/>
      <point x="149" y="-6"/>
      <point x="130" y="-6" type="qcurve"/>
      <point x="95" y="-6"/>
      <point x="49" y="30"/>
      <point x="49" y="65" type="qcurve"/>
      <point x="49" y="70"/>
      <point x="50" y="81"/>
      <point x="51" y="87" type="qcurve"/>
      <point x="100" y="319" type="line"/>
      <point x="31" y="319" type="line"/>
    </contour>
  </outline>
</glyph>
<glyph name="Uring" format="1">
  <advance width="724"/>
  <unicode hex="016E"/>
  <outline>
    <contour>
      <point x="411" y="843" type="qcurve"/>
      <point x="411" y="875"/>
      <point x="459" y="917"/>
      <point x="491" y="917" type="qcurve"/>
      <point x="515" y="917"/>
      <point x="543" y="889"/>
      <point x="543" y="867" type="qcurve"/>
      <point x="543" y="835"/>
      <point x="496" y="792"/>
      <point x="464" y="792" type="qcurve"/>
      <point x="439" y="792"/>
      <point x="411" y="820"/>
    </contour>
    <contour>
      <point x="485" y="894" type="qcurve"/>
      <point x="467" y="894"/>
      <point x="438" y="868"/>
      <point x="438" y="847" type="qcurve"/>
      <point x="438" y="833"/>
      <point x="455" y="815"/>
      <point x="469" y="815" type="qcurve"/>
      <point x="485" y="815"/>
      <point x="517" y="842"/>
      <point x="517" y="862" type="qcurve"/>
      <point x="517" y="877"/>
      <point x="499" y="894"/>
    </contour>
    <contour>
      <point x="298" y="-5" type="qcurve"/>
      <point x="236" y="-5"/>
      <point x="152" y="32"/>
      <point x="101" y="95"/>
      <point x="78" y="180"/>
      <point x="78" y="229" type="qcurve"/>
      <point x="78" y="288"/>
      <point x="92" y="353" type="qcurve"/>
      <point x="168" y="710" type="line"/>
      <point x="219" y="710" type="line"/>
      <point x="143" y="353" type="line"/>
      <point x="137" y="323"/>
      <point x="129" y="265"/>
      <point x="129" y="237" type="qcurve"/>
      <point x="129" y="196"/>
      <point x="147" y="125"/>
      <point x="189" y="72"/>
      <point x="257" y="42"/>
      <point x="307" y="42" type="qcurve"/>
      <point x="375" y="42"/>
      <point x="476" y="96"/>
      <point x="547" y="184"/>
      <point x="592" y="296"/>
      <point x="604" y="353" type="qcurve"/>
      <point x="679" y="710" type="line"/>
      <point x="730" y="710" type="line"/>
      <point x="655" y="353" type="line"/>
      <point x="640" y="281"/>
      <point x="583" y="152"/>
      <point x="495" y="53"/>
      <point x="376" y="-5"/>
    </contour>
  </outline>
</glyph>
<glyph name="Ydieresis" format="1">
  <advance width="602"/>
  <unicode hex="0178"/>
  <outline>
    <contour>
      <point x="264" y="270" type="line"/>
      <point x="93" y="710" type="line"/>
      <point x="150" y="710" type="line"/>
      <point x="300" y="317" type="line"/>
      <point x="618" y="710" type="line"/>
      <point x="674" y="710" type="line"/>
      <point x="315" y="268" type="line"/>
      <point x="257" y="0" type="line"/>
      <point x="207" y="0" type="line"/>
    </contour>
    <contour>
      <point x="318" y="828" type="line"/>
      <point x="336" y="916" type="line"/>
      <point x="380" y="916" type="line"/>
      <point x="361" y="828" type="line"/>
    </contour>
    <contour>
      <point x="449" y="828" type="line"/>
      <point x="468" y="916" type="line"/>
      <point x="511" y="916" type="line"/>
      <point x="493" y="828" type="line"/>
    </contour>
  </outline>
</glyph>
<glyph name="Zcaron" format="1">
  <advance width="593"/>
  <unicode hex="017D"/>
  <outline>
    <contour>
      <point x="306" y="900" type="line"/>
      <point x="339" y="917" type="line"/>
      <point x="407" y="854" type="line"/>
      <point x="501" y="917" type="line"/>
      <point x="527" y="900" type="line"/>
      <point x="418" y="819" type="line"/>
      <point x="381" y="819" type="line"/>
    </contour>
    <contour>
      <point x="-28" y="42" type="line"/>
      <point x="580" y="664" type="line"/>
      <point x="110" y="664" type="line"/>
      <point x="120" y="710" type="line"/>
      <point x="651" y="710" type="line"/>
      <point x="641" y="668" type="line"/>
      <point x="36" y="46" type="line"/>
      <point x="507" y="46" type="line"/>
      <point x="498" y="0" type="line"/>
      <point x="-37" y="0" type="line"/>
    </contour>
  </outline>
</glyph>
<glyph name="florin" format="1">
  <advance width="498"/>
  <unicode hex="0192"/>
  <outline>
    <contour>
      <point x="33" y="-177" type="qcurve"/>
      <point x="3" y="-177"/>
      <point x="-46" y="-160"/>
      <point x="-63" y="-140" type="qcurve"/>
      <point x="-29" y="-107" type="line"/>
      <point x="-17" y="-121"/>
      <point x="19" y="-131"/>
      <point x="38" y="-131" type="qcurve"/>
      <point x="56" y="-131"/>
      <point x="93" y="-116"/>
      <point x="125" y="-89"/>
      <point x="149" y="-52"/>
      <point x="154" y="-30" type="qcurve"/>
      <point x="249" y="418" type="line"/>
      <point x="180" y="418" type="line"/>
      <point x="188" y="459" type="line"/>
      <point x="259" y="459" type="line"/>
      <point x="275" y="537" type="line"/>
      <point x="295" y="633"/>
      <point x="392" y="740"/>
      <point x="458" y="740" type="qcurve"/>
      <point x="487" y="740"/>
      <point x="536" y="722"/>
      <point x="551" y="707" type="qcurve"/>
      <point x="525" y="671" type="line"/>
      <point x="515" y="682"/>
      <point x="478" y="696"/>
      <point x="458" y="696" type="qcurve"/>
      <point x="409" y="696"/>
      <point x="342" y="615"/>
      <point x="325" y="538" type="qcurve"/>
      <point x="309" y="459" type="line"/>
      <point x="448" y="459" type="line"/>
      <point x="439" y="418" type="line"/>
      <point x="299" y="418" type="line"/>
      <point x="204" y="-29" type="line"/>
      <point x="197" y="-62"/>
      <point x="161" y="-116"/>
      <point x="113" y="-155"/>
      <point x="59" y="-177"/>
    </contour>
  </outline>
</glyph>
<glyph name="uni01C7" format="1">
  <advance width="1019"/>
  <unicode hex="01C7"/>
  <outline>
    <contour>
      <point x="657" y="-11" type="qcurve"/>
      <point x="572" y="-11"/>
      <point x="520" y="33" type="qcurve"/>
      <point x="545" y="74" type="line"/>
      <point x="564" y="57"/>
      <point x="626" y="36"/>
      <point x="667" y="36" type="qcurve"/>
      <point x="721" y="36"/>
      <point x="795" y="78"/>
      <point x="846" y="158"/>
      <point x="880" y="275"/>
      <point x="896" y="349" type="qcurve"/>
      <point x="973" y="709" type="line"/>
      <point x="1024" y="709" type="line"/>
      <point x="947" y="349" type="line"/>
      <point x="930" y="268"/>
      <point x="888" y="135"/>
      <point x="824" y="41"/>
      <point x="728" y="-11"/>
    </contour>
    <contour>
      <point x="178" y="710" type="line"/>
      <point x="229" y="710" type="line"/>
      <point x="88" y="46" type="line"/>
      <point x="489" y="46" type="line"/>
      <point x="479" y="0" type="line"/>
      <point x="27" y="0" type="line"/>
    </contour>
  </outline>
</glyph>
<glyph name="uni01CA" format="1">
  <advance width="1205"/>
  <unicode hex="01CA"/>
  <outline>
    <contour>
      <point x="843" y="-11" type="qcurve"/>
      <point x="758" y="-11"/>
      <point x="706" y="33" type="qcurve"/>
      <point x="731" y="74" type="line"/>
      <point x="750" y="57"/>
      <point x="812" y="36"/>
      <point x="853" y="36" type="qcurve"/>
      <point x="907" y="36"/>
      <point x="981" y="78"/>
      <point x="1032" y="158"/>
      <point x="1066" y="275"/>
      <point x="1082" y="349" type="qcurve"/>
      <point x="1159" y="709" type="line"/>
      <point x="1210" y="709" type="line"/>
      <point x="1133" y="349" type="line"/>
      <point x="1116" y="268"/>
      <point x="1074" y="135"/>
      <point x="1010" y="41"/>
      <point x="914" y="-11"/>
    </contour>
    <contour>
      <point x="178" y="710" type="line"/>
      <point x="218" y="710" type="line"/>
      <point x="554" y="85" type="line"/>
      <point x="686" y="709" type="line"/>
      <point x="737" y="709" type="line"/>
      <point x="586" y="0" type="line"/>
      <point x="541" y="0" type="line"/>
      <point x="209" y="614" type="line"/>
      <point x="78" y="0" type="line"/>
      <point x="27" y="0" type="line"/>
    </contour>
  </outline>
</glyph>
<glyph name="iinvertedbreve" format="1">
  <advance width="201"/>
  <unicode hex="020B"/>
  <outline>
    <contour>
      <point x="88" y="638" type="line"/>
      <point x="96" y="676"/>
      <point x="154" y="730"/>
      <point x="192" y="730" type="qcurve"/>
      <point x="225" y="730"/>
      <point x="261" y="686"/>
      <point x="261" y="657" type="qcurve"/>
      <point x="261" y="652"/>
      <point x="261" y="643"/>
      <point x="259" y="638" type="qcurve"/>
      <point x="228" y="638" type="line"/>
      <point x="228" y="643"/>
      <point x="229" y="651"/>
      <point x="229" y="656" type="qcurve"/>
      <point x="229" y="702"/>
      <point x="189" y="702" type="qcurve"/>
      <point x="160" y="702"/>
      <point x="126" y="664"/>
      <point x="120" y="638" type="qcurve"/>
    </contour>
    <contour>
      <point x="122" y="520" type="line"/>
      <point x="172" y="520" type="line"/>
      <point x="62" y="0" type="line"/>
      <point x="12" y="0" type="line"/>
    </contour>
  </outline>
</glyph>
<glyph name="rdblgrave" format="1">
  <advance width="333"/>
  <unicode hex="0211"/>
  <outline>
    <contour>
      <point x="255" y="730" type="line"/>
      <point x="305" y="730" type="line"/>
      <point x="344" y="645" type="line"/>
      <point x="312" y="629" type="line"/>
    </contour>
    <contour>
      <point x="143" y="730" type="line"/>
      <point x="195" y="730" type="line"/>
      <point x="232" y="645" type="line"/>
      <point x="200" y="629" type="line"/>
    </contour>
    <contour>
      <point x="122" y="520" type="line"/>
      <point x="170" y="520" type="line"/>
      <point x="142" y="392" type="line"/>
      <point x="184" y="452"/>
      <point x="293" y="521"/>
      <point x="344" y="521" type="qcurve"/>
      <point x="354" y="521"/>
      <point x="358" y="520" type="qcurve"/>
      <point x="348" y="475" type="line"/>
      <point x="281" y="473"/>
      <point x="166" y="394"/>
      <point x="131" y="325" type="qcurve"/>
      <point x="62" y="0" type="line"/>
      <point x="12" y="0" type="line"/>
    </contour>
  </outline>
</glyph>
<glyph name="Rinvertedbreve" format="1">
  <advance width="624"/>
  <unicode hex="0212"/>
  <outline>
    <contour>
      <point x="338" y="825" type="line"/>
      <point x="346" y="863"/>
      <point x="404" y="917"/>
      <point x="442" y="917" type="qcurve"/>
      <point x="475" y="917"/>
      <point x="511" y="873"/>
      <point x="511" y="844" type="qcurve"/>
      <point x="511" y="839"/>
      <point x="511" y="830"/>
      <point x="509" y="825" type="qcurve"/>
      <point x="478" y="825" type="line"/>
      <point x="478" y="830"/>
      <point x="479" y="838"/>
      <point x="479" y="843" type="qcurve"/>
      <point x="479" y="889"/>
      <point x="439" y="889" type="qcurve"/>
      <point x="410" y="889"/>
      <point x="376" y="851"/>
      <point x="370" y="825" type="qcurve"/>
    </contour>
    <contour>
      <point x="27" y="0" type="line"/>
      <point x="178" y="710" type="line"/>
      <point x="460" y="710" type="line"/>
      <point x="496" y="710"/>
      <point x="554" y="679"/>
      <point x="594" y="628"/>
      <point x="615" y="563"/>
      <point x="615" y="528" type="qcurve"/>
      <point x="615" y="484"/>
      <point x="582" y="399"/>
      <point x="525" y="330"/>
      <point x="450" y="282"/>
      <point x="407" y="276" type="qcurve"/>
      <point x="515" y="0" type="line"/>
      <point x="457" y="0" type="line"/>
      <point x="351" y="268" type="line"/>
      <point x="135" y="268" type="line"/>
      <point x="78" y="0" type="line"/>
    </contour>
    <contour>
      <point x="380" y="315" type="line"/>
      <point x="417" y="315"/>
      <point x="484" y="352"/>
      <point x="533" y="411"/>
      <point x="562" y="485"/>
      <point x="562" y="522" type="qcurve"/>
      <point x="562" y="550"/>
      <point x="545" y="602"/>
      <point x="515" y="641"/>
      <point x="473" y="664"/>
      <point x="447" y="664" type="qcurve"/>
      <point x="219" y="664" type="line"/>
      <point x="145" y="315" type="line"/>
    </contour>
  </outline>
</glyph>
<glyph name="dotlessj" format="1">
  <advance width="201"/>
  <unicode hex="0237"/>
  <outline>
    <contour>
      <point x="41" y="520" type="move" name="top"/>
    </contour>
    <contour>
      <point x="-116" y="-177" type="qcurve"/>
      <point x="-146" y="-177"/>
      <point x="-195" y="-160"/>
      <point x="-212" y="-140" type="qcurve"/>
      <point x="-178" y="-107" type="line"/>
      <point x="-166" y="-121"/>
      <point x="-130" y="-131"/>
      <point x="-111" y="-131" type="qcurve"/>
      <point x="-93" y="-131"/>
      <point x="-56" y="-116"/>
      <point x="-24" y="-89"/>
      <point x="0" y="-52"/>
      <point x="5" y="-30" type="qcurve"/>
      <point x="122" y="520" type="line"/>
      <point x="172" y="520" type="line"/>
      <point x="55" y="-28" type="line"/>
      <point x="48" y="-61"/>
      <point x="13" y="-115"/>
      <point x="-35" y="-155"/>
      <point x="-90" y="-177"/>
    </contour>
  </outline>
</glyph>
<glyph name="schwa" format="1">
  <advance width="556"/>
  <unicode hex="0259"/>
  <outline>
    <contour>
      <point x="207" y="-10" type="qcurve"/>
      <point x="162" y="-10"/>
      <point x="91" y="21"/>
      <point x="40" y="76"/>
      <point x="13" y="152"/>
      <point x="13" y="196" type="qcurve"/>
      <point x="13" y="215"/>
      <point x="18" y="260"/>
      <point x="25" y="278" type="qcurve"/>
      <point x="457" y="278" type="line"/>
      <point x="460" y="297"/>
      <point x="460" y="316" type="qcurve"/>
      <point x="460" y="353"/>
      <point x="438" y="417"/>
      <point x="398" y="462"/>
      <point x="342" y="488"/>
      <point x="308" y="488" type="qcurve"/>
      <point x="282" y="488"/>
      <point x="229" y="473"/>
      <point x="181" y="447"/>
      <point x="141" y="411"/>
      <point x="127" y="389" type="qcurve"/>
      <point x="86" y="401" type="line"/>
      <point x="102" y="428"/>
      <point x="153" y="475"/>
      <point x="215" y="510"/>
      <point x="284" y="529"/>
      <point x="319" y="529" type="qcurve"/>
      <point x="363" y="529"/>
      <point x="435" y="495"/>
      <point x="485" y="435"/>
      <point x="512" y="354"/>
      <point x="512" y="308" type="qcurve"/>
      <point x="512" y="245"/>
      <point x="462" y="130"/>
      <point x="377" y="42"/>
      <point x="267" y="-10"/>
    </contour>
    <contour>
      <point x="216" y="30" type="qcurve"/>
      <point x="255" y="30"/>
      <point x="328" y="62"/>
      <point x="391" y="118"/>
      <point x="438" y="196"/>
      <point x="450" y="241" type="qcurve"/>
      <point x="66" y="241" type="line"/>
      <point x="63" y="220"/>
      <point x="63" y="201" type="qcurve"/>
      <point x="63" y="163"/>
      <point x="85" y="100"/>
      <point x="125" y="55"/>
      <point x="181" y="30"/>
    </contour>
  </outline>
</glyph>
<glyph name="ogonek" format="1">
  <advance width="216"/>
  <unicode hex="02DB"/>
  <outline>
    <contour>
      <point x="150" y="0" type="move" name="_bottom"/>
    </contour>
    <contour>
      <point x="78" y="-169" type="line"/>
      <point x="52" y="-163"/>
      <point x="27" y="-133"/>
      <point x="27" y="-113" type="qcurve"/>
      <point x="27" y="-81"/>
      <point x="81" y="-23"/>
      <point x="146" y="16" type="qcurve"/>
      <point x="161" y="0" type="line"/>
      <point x="105" y="-34"/>
      <point x="62" y="-79"/>
      <point x="62" y="-102" type="qcurve"/>
      <point x="62" y="-133"/>
      <point x="101" y="-139" type="qcurve"/>
    </contour>
  </outline>
</glyph>
<glyph name="hungarumlaut" format="1">
  <advance width="302"/>
  <unicode hex="02DD"/>
  <outline>
    <contour>
      <point x="138" y="520" type="move" name="_top"/>
    </contour>
    <contour>
      <point x="67" y="629" type="line"/>
      <point x="41" y="645" type="line"/>
      <point x="116" y="730" type="line"/>
      <point x="167" y="730" type="line"/>
    </contour>
    <contour>
      <point x="179" y="629" type="line"/>
      <point x="153" y="645" type="line"/>
      <point x="227" y="730" type="line"/>
      <point x="279" y="730" type="line"/>
    </contour>
  </outline>
</glyph>
<glyph name="uni03A9" format="1">
  <advance width="811"/>
  <unicode hex="03A9"/>
  <outline>
    <contour>
      <point x="58" y="47" type="line"/>
      <point x="259" y="47" type="line"/>
      <point x="168" y="92"/>
      <point x="65" y="262"/>
      <point x="65" y="365" type="qcurve"/>
      <point x="65" y="434"/>
      <point x="115" y="561"/>
      <point x="203" y="657"/>
      <point x="323" y="715"/>
      <point x="394" y="715" type="qcurve"/>
      <point x="464" y="715"/>
      <point x="585" y="657"/>
      <point x="672" y="561"/>
      <point x="722" y="434"/>
      <point x="722" y="365" type="qcurve"/>
      <point x="722" y="262"/>
      <point x="619" y="92"/>
      <point x="528" y="47" type="qcurve"/>
      <point x="730" y="47" type="line"/>
      <point x="730" y="0" type="line"/>
      <point x="441" y="0" type="line"/>
      <point x="441" y="47" type="line"/>
      <point x="496" y="60"/>
      <point x="582" y="125"/>
      <point x="640" y="213"/>
      <point x="671" y="315"/>
      <point x="671" y="365" type="qcurve"/>
      <point x="671" y="421"/>
      <point x="633" y="530"/>
      <point x="561" y="615"/>
      <point x="458" y="667"/>
      <point x="394" y="667" type="qcurve"/>
      <point x="329" y="667"/>
      <point x="227" y="615"/>
      <point x="155" y="530"/>
      <point x="117" y="421"/>
      <point x="117" y="365" type="qcurve"/>
      <point x="117" y="315"/>
      <point x="148" y="213"/>
      <point x="206" y="125"/>
      <point x="292" y="60"/>
      <point x="347" y="47" type="qcurve"/>
      <point x="347" y="0" type="line"/>
      <point x="58" y="0" type="line"/>
    </contour>
  </outline>
</glyph>
<glyph name="uni03BC" format="1">
  <advance width="569"/>
  <unicode hex="03BC"/>
  <outline>
    <contour>
      <point x="123" y="520" type="line"/>
      <point x="173" y="520" type="line"/>
      <point x="111" y="227" type="line"/>
      <point x="100" y="177"/>
      <point x="100" y="142" type="qcurve"/>
      <point x="100" y="35"/>
      <point x="194" y="35" type="qcurve"/>
      <point x="224" y="35"/>
      <point x="288" y="58"/>
      <point x="347" y="99"/>
      <point x="398" y="157"/>
      <point x="416" y="192" type="qcurve"/>
      <point x="486" y="520" type="line"/>
      <point x="537" y="520" type="line"/>
      <point x="441" y="70" type="line"/>
      <point x="440" y="67"/>
      <point x="440" y="60" type="qcurve"/>
      <point x="440" y="45"/>
      <point x="457" y="45" type="qcurve"/>
      <point x="446" y="0" type="line"/>
      <point x="411" y="0"/>
      <point x="394" y="23"/>
      <point x="394" y="40" type="qcurve"/>
      <point x="394" y="42"/>
      <point x="397" y="63"/>
      <point x="401" y="89"/>
      <point x="406" y="115"/>
      <point x="408" y="123" type="qcurve"/>
      <point x="388" y="94"/>
      <point x="335" y="45"/>
      <point x="276" y="10"/>
      <point x="213" y="-10"/>
      <point x="182" y="-10" type="qcurve"/>
      <point x="134" y="-10"/>
      <point x="83" y="39"/>
      <point x="77" y="82" type="qcurve"/>
      <point x="17" y="-212" type="line"/>
      <point x="-33" y="-212" type="line"/>
    </contour>
  </outline>
</glyph>
<glyph name="Rdotbelow" format="1">
  <advance width="624"/>
  <unicode hex="1E5A"/>
  <outline>
    <contour>
      <point x="27" y="0" type="line"/>
      <point x="178" y="710" type="line"/>
      <point x="460" y="710" type="line"/>
      <point x="496" y="710"/>
      <point x="554" y="679"/>
      <point x="594" y="628"/>
      <point x="615" y="563"/>
      <point x="615" y="528" type="qcurve"/>
      <point x="615" y="484"/>
      <point x="582" y="399"/>
      <point x="525" y="330"/>
      <point x="450" y="282"/>
      <point x="407" y="276" type="qcurve"/>
      <point x="515" y="0" type="line"/>
      <point x="457" y="0" type="line"/>
      <point x="351" y="268" type="line"/>
      <point x="135" y="268" type="line"/>
      <point x="78" y="0" type="line"/>
    </contour>
    <contour>
      <point x="380" y="315" type="line"/>
      <point x="417" y="315"/>
      <point x="484" y="352"/>
      <point x="533" y="411"/>
      <point x="562" y="485"/>
      <point x="562" y="522" type="qcurve"/>
      <point x="562" y="550"/>
      <point x="545" y="602"/>
      <point x="515" y="641"/>
      <point x="473" y="664"/>
      <point x="447" y="664" type="qcurve"/>
      <point x="219" y="664" type="line"/>
      <point x="145" y="315" type="line"/>
    </contour>
    <contour>
      <point x="197" y="-151" type="line"/>
      <point x="216" y="-61" type="line"/>
      <point x="262" y="-61" type="line"/>
      <point x="243" y="-151" type="line"/>
    </contour>
  </outline>
</glyph>
<glyph name="quotesinglbase" format="1">
  <advance width="237"/>
  <unicode hex="201A"/>
  <outline>
    <contour>
      <point x="13" y="-93" type="line"/>
      <point x="47" y="0" type="line"/>
      <point x="28" y="0" type="line"/>
      <point x="48" y="92" type="line"/>
      <point x="99" y="92" type="line"/>
      <point x="79" y="0" type="line"/>
      <point x="40" y="-93" type="line"/>
    </contour>
  </outline>
</glyph>
<glyph name="quotedblright" format="1">
  <advance width="277"/>
  <unicode hex="201D"/>
  <outline>
    <contour>
      <point x="118" y="540" type="line"/>
      <point x="153" y="638" type="line"/>
      <point x="135" y="638" type="line"/>
      <point x="154" y="730" type="line"/>
      <point x="206" y="730" type="line"/>
      <point x="186" y="638" type="line"/>
      <point x="145" y="540" type="line"/>
    </contour>
    <contour>
      <point x="219" y="540" type="line"/>
      <point x="253" y="638" type="line"/>
      <point x="235" y="638" type="line"/>
      <point x="254" y="730" type="line"/>
      <point x="306" y="730" type="line"/>
      <point x="286" y="638" type="line"/>
      <point x="245" y="540" type="line"/>
    </contour>
  </outline>
</glyph>
<glyph name="dagger" format="1">
  <advance width="381"/>
  <unicode hex="2020"/>
  <outline>
    <contour>
      <point x="75" y="-130" type="line"/>
      <point x="155" y="248" type="line"/>
      <point x="30" y="248" type="line"/>
      <point x="40" y="294" type="line"/>
      <point x="166" y="294" type="line"/>
      <point x="268" y="775" type="line"/>
      <point x="316" y="775" type="line"/>
      <point x="214" y="294" type="line"/>
      <point x="338" y="294" type="line"/>
      <point x="329" y="248" type="line"/>
      <point x="204" y="248" type="line"/>
      <point x="124" y="-130" type="line"/>
    </contour>
  </outline>
</glyph>
<glyph name="bullet" format="1">
  <advance width="337"/>
  <unicode hex="2022"/>
  <outline>
    <contour>
      <point x="260" y="360" type="qcurve"/>
      <point x="260" y="340"/>
      <point x="243" y="303"/>
      <point x="214" y="275"/>
      <point x="177" y="259"/>
      <point x="158" y="259" type="qcurve"/>
      <point x="129" y="259"/>
      <point x="93" y="300"/>
      <point x="93" y="330" type="qcurve"/>
      <point x="93" y="350"/>
      <point x="111" y="386"/>
      <point x="140" y="414"/>
      <point x="176" y="430"/>
      <point x="195" y="430" type="qcurve"/>
      <point x="225" y="430"/>
      <point x="260" y="389"/>
    </contour>
  </outline>
</glyph>
<glyph name="uni20A9" format="1">
  <advance width="1047"/>
  <unicode hex="20A9"/>
  <outline>
    <contour>
      <point x="52" y="364" type="line"/>
      <point x="193" y="364" type="line"/>
      <point x="180" y="433" type="line"/>
      <point x="67" y="433" type="line"/>
      <point x="74" y="467" type="line"/>
      <point x="173" y="467" type="line"/>
      <point x="127" y="710" type="line"/>
      <point x="182" y="710" type="line"/>
      <point x="226" y="467" type="line"/>
      <point x="501" y="467" type="line"/>
      <point x="457" y="705" type="line"/>
      <point x="507" y="705" type="line"/>
      <point x="552" y="447" type="line"/>
      <point x="707" y="705" type="line"/>
      <point x="757" y="705" type="line"/>
      <point x="612" y="467" type="line"/>
      <point x="888" y="467" type="line"/>
      <point x="1036" y="710" type="line"/>
      <point x="1091" y="710" type="line"/>
      <point x="940" y="467" type="line"/>
      <point x="1040" y="467" type="line"/>
      <point x="1032" y="433" type="line"/>
      <point x="919" y="433" type="line"/>
      <point x="877" y="364" type="line"/>
      <point x="1017" y="364" type="line"/>
      <point x="1010" y="330" type="line"/>
      <point x="856" y="330" type="line"/>
      <point x="652" y="0" type="line"/>
      <point x="606" y="0" type="line"/>
      <point x="536" y="365" type="line"/>
      <point x="310" y="0" type="line"/>
      <point x="263" y="0" type="line"/>
      <point x="199" y="330" type="line"/>
      <point x="45" y="330" type="line"/>
    </contour>
    <contour>
      <point x="641" y="60" type="line"/>
      <point x="805" y="330" type="line"/>
      <point x="589" y="330" type="line"/>
    </contour>
    <contour>
      <point x="300" y="60" type="line"/>
      <point x="466" y="330" type="line"/>
      <point x="250" y="330" type="line"/>
    </contour>
    <contour>
      <point x="508" y="433" type="line"/>
      <point x="232" y="433" type="line"/>
      <point x="244" y="364" type="line"/>
      <point x="487" y="364" type="line"/>
      <point x="513" y="406" type="line"/>
    </contour>
    <contour>
      <point x="575" y="406" type="line"/>
      <point x="583" y="364" type="line"/>
      <point x="825" y="364" type="line"/>
      <point x="867" y="433" type="line"/>
      <point x="591" y="433" type="line"/>
    </contour>
  </outline>
</glyph>
<glyph name="uni2113" format="1">
  <advance width="324"/>
  <unicode hex="2113"/>
  <outline>
    <contour>
      <point x="169" y="-6" type="qcurve"/>
      <point x="124" y="-6"/>
      <point x="75" y="45"/>
      <point x="75" y="94" type="qcurve"/>
      <point x="75" y="610" type="line"/>
      <point x="75" y="638"/>
      <point x="91" y="685"/>
      <point x="119" y="720"/>
      <point x="156" y="740"/>
      <point x="178" y="740" type="qcurve"/>
      <point x="222" y="740"/>
      <point x="276" y="668"/>
      <point x="276" y="610" type="qcurve"/>
      <point x="276" y="571"/>
      <point x="250" y="480"/>
      <point x="207" y="389"/>
      <point x="151" y="306"/>
      <point x="121" y="276" type="qcurve"/>
      <point x="121" y="102" type="line"/>
      <point x="121" y="73"/>
      <point x="157" y="39"/>
      <point x="188" y="39" type="qcurve"/>
      <point x="200" y="39"/>
      <point x="231" y="48"/>
      <point x="245" y="53" type="qcurve"/>
      <point x="255" y="13" type="line"/>
      <point x="236" y="5"/>
      <point x="189" y="-6"/>
    </contour>
    <contour>
      <point x="233" y="604" type="qcurve"/>
      <point x="233" y="649"/>
      <point x="205" y="698"/>
      <point x="179" y="698" type="qcurve"/>
      <point x="153" y="698"/>
      <point x="121" y="649"/>
      <point x="121" y="610" type="qcurve"/>
      <point x="121" y="332" type="line"/>
      <point x="143" y="359"/>
      <point x="184" y="430"/>
      <point x="215" y="505"/>
      <point x="233" y="576"/>
    </contour>
  </outline>
</glyph>
<glyph name="estimated" format="1">
  <advance width="613"/>
  <unicode hex="212E"/>
  <outline>
    <contour>
      <point x="303" y="18" type="qcurve"/>
      <point x="372" y="18"/>
      <point x="471" y="62"/>
      <point x="500" y="94" type="qcurve"/>
      <point x="518" y="73" type="line"/>
      <point x="483" y="38"/>
      <point x="378" y="-10"/>
      <point x="303" y="-10" type="qcurve"/>
      <point x="244" y="-10"/>
      <point x="147" y="34"/>
      <point x="78" y="108"/>
      <point x="40" y="206"/>
      <point x="40" y="260" type="qcurve"/>
      <point x="40" y="315"/>
      <point x="79" y="413"/>
      <point x="148" y="487"/>
      <point x="245" y="531"/>
      <point x="303" y="531" type="qcurve"/>
      <point x="361" y="531"/>
      <point x="459" y="487"/>
      <point x="528" y="412"/>
      <point x="567" y="312"/>
      <point x="567" y="255" type="qcurve"/>
      <point x="128" y="255" type="line"/>
      <point x="128" y="105" type="line"/>
      <point x="159" y="64"/>
      <point x="249" y="18"/>
    </contour>
    <contour>
      <point x="303" y="503" type="qcurve"/>
      <point x="249" y="503"/>
      <point x="159" y="456"/>
      <point x="128" y="414" type="qcurve"/>
      <point x="128" y="284" type="line"/>
      <point x="481" y="284" type="line"/>
      <point x="481" y="413" type="line"/>
      <point x="449" y="455"/>
      <point x="356" y="503"/>
    </contour>
  </outline>
</glyph>
<glyph name="uni2215" format="1">
  <advance width="558"/>
  <unicode hex="2215"/>
  <outline>
    <contour>
      <point x="-62" y="23" type="line"/>
      <point x="618" y="713" type="line"/>
      <point x="644" y="687" type="line"/>
      <point x="-36" y="-3" type="line"/>
    </contour>
  </outline>
</glyph>
<glyph name="integral" format="1">
  <advance width="283"/>
  <unicode hex="222B"/>
  <outline>
    <contour>
      <point x="106" y="677" type="line"/>
      <point x="104" y="705"/>
      <point x="103" y="723"/>
      <point x="103" y="728" type="qcurve"/>
      <point x="103" y="768"/>
      <point x="150" y="820"/>
      <point x="192" y="820" type="qcurve"/>
      <point x="212" y="820"/>
      <point x="262" y="808"/>
      <point x="282" y="799" type="qcurve"/>
      <point x="269" y="763" type="line"/>
      <point x="255" y="769"/>
      <point x="217" y="779"/>
      <point x="206" y="779" type="qcurve"/>
      <point x="180" y="779"/>
      <point x="149" y="746"/>
      <point x="149" y="714" type="qcurve"/>
      <point x="149" y="709"/>
      <point x="149" y="694"/>
      <point x="151" y="669" type="qcurve"/>
      <point x="189" y="-25" type="line"/>
      <point x="191" y="-52"/>
      <point x="191" y="-65"/>
      <point x="191" y="-68" type="qcurve"/>
      <point x="191" y="-116"/>
      <point x="144" y="-167"/>
      <point x="102" y="-167" type="qcurve"/>
      <point x="83" y="-167"/>
      <point x="34" y="-155"/>
      <point x="14" y="-146" type="qcurve"/>
      <point x="27" y="-110" type="line"/>
      <point x="42" y="-116"/>
      <point x="76" y="-126"/>
      <point x="89" y="-126" type="qcurve"/>
      <point x="115" y="-126"/>
      <point x="146" y="-89"/>
      <point x="146" y="-54" type="qcurve"/>
      <point x="146" y="-52"/>
      <point x="146" y="-41"/>
      <point x="144" y="-19" type="qcurve"/>
    </contour>
  </outline>
</glyph>
<glyph name="lozenge" format="1">
  <advance width="491"/>
  <unicode hex="25CA"/>
  <outline>
    <contour>
      <point x="286" y="730" type="line"/>
      <point x="472" y="366" type="line"/>
      <point x="286" y="0" type="line"/>
      <point x="231" y="0" type="line"/>
      <point x="45" y="366" type="line"/>
      <point x="231" y="730" type="line"/>
    </contour>
    <contour>
      <point x="422" y="354" type="line"/>
      <point x="256" y="689" type="line"/>
      <point x="99" y="375" type="line"/>
      <point x="265" y="43" type="line"/>
    </contour>
  </outline>
</glyph>
<glyph name="f_f" format="1">
  <advance width="546"/>
  <unicode hex="FB00"/>
  <outline>
    <contour>
      <point x="133" y="479" type="line"/>
      <point x="64" y="479" type="line"/>
      <point x="73" y="520" type="line"/>
      <point x="143" y="520" type="line"/>
      <point x="144" y="528" type="line"/>
      <point x="151" y="560"/>
      <point x="181" y="622"/>
      <point x="228" y="671"/>
      <point x="289" y="701"/>
      <point x="328" y="701" type="qcurve"/>
      <point x="361" y="701"/>
      <point x="410" y="684"/>
      <point x="424" y="674" type="qcurve"/>
      <point x="450" y="704"/>
      <point x="517" y="740"/>
      <point x="562" y="740" type="qcurve"/>
      <point x="585" y="740"/>
      <point x="615" y="731"/>
      <point x="635" y="720"/>
      <point x="646" y="709"/>
      <point x="649" y="707" type="qcurve"/>
      <point x="623" y="671" type="line"/>
      <point x="617" y="678"/>
      <point x="593" y="695"/>
      <point x="561" y="695" type="qcurve"/>
      <point x="528" y="695"/>
      <point x="475" y="666"/>
      <point x="437" y="621"/>
      <point x="413" y="565"/>
      <point x="408" y="538" type="qcurve"/>
      <point x="404" y="520" type="line"/>
      <point x="567" y="520" type="line"/>
      <point x="558" y="479" type="line"/>
      <point x="395" y="479" type="line"/>
      <point x="293" y="0" type="line"/>
      <point x="243" y="0" type="line"/>
      <point x="345" y="479" type="line"/>
      <point x="183" y="479" type="line"/>
      <point x="82" y="0" type="line"/>
      <point x="32" y="0" type="line"/>
    </contour>
    <contour>
      <point x="354" y="520" type="line"/>
      <point x="361" y="556"/>
      <point x="383" y="612"/>
      <point x="399" y="635" type="qcurve"/>
      <point x="385" y="648"/>
      <point x="342" y="656"/>
      <point x="326" y="656" type="qcurve"/>
      <point x="295" y="656"/>
      <point x="250" y="632"/>
      <point x="218" y="594"/>
      <point x="199" y="550"/>
      <point x="194" y="529" type="qcurve"/>
      <point x="192" y="520" type="line"/>
    </contour>
  </outline>
</glyph>
<glyph name="f_i" format="1">
  <advance width="464"/>
  <unicode hex="FB01"/>
  <outline>
    <contour>
      <point x="133" y="479" type="line"/>
      <point x="64" y="479" type="line"/>
      <point x="73" y="520" type="line"/>
      <point x="143" y="520" type="line"/>
      <point x="146" y="537" type="line"/>
      <point x="153" y="571"/>
      <point x="187" y="644"/>
      <point x="240" y="702"/>
      <point x="312" y="740"/>
      <point x="357" y="740" type="qcurve"/>
      <point x="383" y="740"/>
      <point x="425" y="730"/>
      <point x="457" y="717"/>
      <point x="477" y="702"/>
      <point x="482" y="698" type="qcurve"/>
      <point x="449" y="663" type="line"/>
      <point x="438" y="676"/>
      <point x="385" y="695"/>
      <point x="350" y="695" type="qcurve"/>
      <point x="318" y="695"/>
      <point x="266" y="666"/>
      <point x="227" y="621"/>
      <point x="202" y="565"/>
      <point x="196" y="538" type="qcurve"/>
      <point x="193" y="520" type="line"/>
      <point x="435" y="520" type="line"/>
      <point x="324" y="0" type="line"/>
      <point x="274" y="0" type="line"/>
      <point x="376" y="479" type="line"/>
      <point x="183" y="479" type="line"/>
      <point x="82" y="0" type="line"/>
      <point x="32" y="0" type="line"/>
    </contour>
  </outline>
</glyph>
<glyph name="f_f_i" format="1">
  <advance width="676"/>
  <unicode hex="FB03"/>
  <outline>
    <contour>
      <point x="133" y="479" type="line"/>
      <point x="64" y="479" type="line"/>
      <point x="73" y="520" type="line"/>
      <point x="142" y="520" type="line"/>
      <point x="144" y="528" type="line"/>
      <point x="150" y="559"/>
      <point x="180" y="620"/>
      <point x="227" y="670"/>
      <point x="289" y="701"/>
      <point x="328" y="701" type="qcurve"/>
      <point x="361" y="701"/>
      <point x="410" y="684"/>
      <point x="424" y="674" type="qcurve"/>
      <point x="452" y="704"/>
      <point x="523" y="740"/>
      <point x="570" y="740" type="qcurve"/>
      <point x="594" y="740"/>
      <point x="635" y="730"/>
      <point x="667" y="717"/>
      <point x="689" y="702"/>
      <point x="694" y="698" type="qcurve"/>
      <point x="661" y="663" type="line"/>
      <point x="651" y="675"/>
      <point x="597" y="695"/>
      <point x="565" y="695" type="qcurve"/>
      <point x="530" y="695"/>
      <point x="477" y="666"/>
      <point x="438" y="621"/>
      <point x="413" y="565"/>
      <point x="408" y="538" type="qcurve"/>
      <point x="404" y="520" type="line"/>
      <point x="647" y="520" type="line"/>
      <point x="536" y="0" type="line"/>
      <point x="486" y="0" type="line"/>
      <point x="588" y="479" type="line"/>
      <point x="395" y="479" type="line"/>
      <point x="293" y="0" type="line"/>
      <point x="243" y="0" type="line"/>
      <point x="345" y="479" type="line"/>
      <point x="183" y="479" type="line"/>
      <point x="82" y="0" type="line"/>
      <point x="32" y="0" type="line"/>
    </contour>
    <contour>
      <point x="354" y="520" type="line"/>
      <point x="361" y="552"/>
      <point x="383" y="612"/>
      <point x="399" y="635" type="qcurve"/>
      <point x="385" y="648"/>
      <point x="342" y="656"/>
      <point x="326" y="656" type="qcurve"/>
      <point x="295" y="656"/>
      <point x="249" y="631"/>
      <point x="217" y="594"/>
      <point x="198" y="549"/>
      <point x="194" y="528" type="qcurve"/>
      <point x="192" y="520" type="line"/>
    </contour>
  </outline>
</glyph>
<glyph name="H.sc" format="1">
  <advance width="612"/>
  <outline>
    <contour>
      <point x="309" y="707" type="move" name="top"/>
    </contour>
    <contour>
      <point x="138" y="545" type="line"/>
      <point x="185" y="545" type="line"/>
      <point x="133" y="300" type="line"/>
      <point x="480" y="300" type="line"/>
      <point x="531" y="545" type="line"/>
      <point x="578" y="545" type="line"/>
      <point x="462" y="0" type="line"/>
      <point x="416" y="0" type="line"/>
      <point x="470" y="257" type="line"/>
      <point x="123" y="257" type="line"/>
      <point x="69" y="0" type="line"/>
      <point x="22" y="0" type="line"/>
    </contour>
  </outline>
</glyph>
<glyph name="P.sc" format="1">
  <advance width="520"/>
  <outline>
    <contour>
      <point x="138" y="545" type="line"/>
      <point x="370" y="545" type="line"/>
      <point x="401" y="545"/>
      <point x="451" y="521"/>
      <point x="485" y="480"/>
      <point x="503" y="429"/>
      <point x="503" y="402" type="qcurve"/>
      <point x="503" y="366"/>
      <point x="471" y="294"/>
      <point x="417" y="238"/>
      <point x="344" y="203"/>
      <point x="303" y="203" type="qcurve"/>
      <point x="112" y="203" type="line"/>
      <point x="69" y="0" type="line"/>
      <point x="22" y="0" type="line"/>
    </contour>
    <contour>
      <point x="310" y="245" type="line"/>
      <point x="341" y="245"/>
      <point x="394" y="272"/>
      <point x="433" y="315"/>
      <point x="455" y="369"/>
      <point x="455" y="396" type="qcurve"/>
      <point x="455" y="441"/>
      <point x="403" y="502"/>
      <point x="359" y="502" type="qcurve"/>
      <point x="175" y="502" type="line"/>
      <point x="121" y="245" type="line"/>
    </contour>
  </outline>
</glyph>
<glyph name="R.sc" format="1">
  <advance width="544"/>
  <outline>
    <contour>
      <point x="258" y="710" type="move" name="top"/>
    </contour>
    <contour>
      <point x="258" y="0" type="move" name="bottom"/>
    </contour>
    <contour>
      <point x="138" y="545" type="line"/>
      <point x="374" y="545" type="line"/>
      <point x="405" y="545"/>
      <point x="455" y="521"/>
      <point x="489" y="480"/>
      <point x="507" y="429"/>
      <point x="507" y="402" type="qcurve"/>
      <point x="507" y="369"/>
      <point x="481" y="305"/>
      <point x="435" y="253"/>
      <point x="374" y="217"/>
      <point x="339" y="211" type="qcurve"/>
      <point x="434" y="0" type="line"/>
      <point x="380" y="0" type="line"/>
      <point x="289" y="203" type="line"/>
      <point x="112" y="203" type="line"/>
      <point x="69" y="0" type="line"/>
      <point x="22" y="0" type="line"/>
    </contour>
    <contour>
      <point x="313" y="245" type="line"/>
      <point x="343" y="245"/>
      <point x="396" y="272"/>
      <point x="436" y="315"/>
      <point x="459" y="369"/>
      <point x="459" y="396" type="qcurve"/>
      <point x="459" y="439"/>
      <point x="407" y="502"/>
      <point x="362" y="502" type="qcurve"/>
      <point x="175" y="502" type="line"/>
      <point x="121" y="245" type="line"/>
    </contour>
  </outline>
</glyph>
<glyph name="S.sc" format="1">
  <advance width="507"/>
  <outline>
    <contour>
      <point x="251" y="729" type="move" name="top"/>
    </contour>
    <contour>
      <point x="251" y="0" type="move" name="bottom"/>
    </contour>
    <contour>
      <point x="199" y="-5" type="qcurve"/>
      <point x="70" y="-5"/>
      <point x="-7" y="75" type="qcurve"/>
      <point x="26" y="113" type="line"/>
      <point x="53" y="78"/>
      <point x="145" y="36"/>
      <point x="210" y="36" type="qcurve"/>
      <point x="288" y="36"/>
      <point x="383" y="95"/>
      <point x="383" y="154" type="qcurve"/>
      <point x="383" y="196"/>
      <point x="307" y="237"/>
      <point x="233" y="253" type="qcurve"/>
      <point x="196" y="261"/>
      <point x="138" y="280"/>
      <point x="99" y="307"/>
      <point x="79" y="344"/>
      <point x="79" y="370" type="qcurve"/>
      <point x="79" y="412"/>
      <point x="115" y="478"/>
      <point x="178" y="524"/>
      <point x="263" y="548"/>
      <point x="313" y="548" type="qcurve"/>
      <point x="368" y="548"/>
      <point x="447" y="517"/>
      <point x="475" y="485" type="qcurve"/>
      <point x="445" y="448" type="line"/>
      <point x="423" y="477"/>
      <point x="355" y="507"/>
      <point x="304" y="507" type="qcurve"/>
      <point x="257" y="507"/>
      <point x="191" y="488"/>
      <point x="148" y="454"/>
      <point x="128" y="409"/>
      <point x="128" y="382" type="qcurve"/>
      <point x="128" y="363"/>
      <point x="145" y="336"/>
      <point x="180" y="316"/>
      <point x="233" y="300"/>
      <point x="268" y="292" type="qcurve"/>
      <point x="305" y="284"/>
      <point x="367" y="264"/>
      <point x="410" y="236"/>
      <point x="434" y="196"/>
      <point x="434" y="167" type="qcurve"/>
      <point x="434" y="125"/>
      <point x="399" y="60"/>
      <point x="336" y="17"/>
      <point x="250" y="-5"/>
    </contour>
  </outline>
</glyph>
<glyph name="T.sc" format="1">
  <advance width="504"/>
  <outline>
    <contour>
      <point x="237" y="707" type="move" name="top"/>
    </contour>
    <contour>
      <point x="237" y="0" type="move" name="bottom"/>
    </contour>
    <contour>
      <point x="271" y="502" type="line"/>
      <point x="66" y="502" type="line"/>
      <point x="75" y="545" type="line"/>
      <point x="530" y="545" type="line"/>
      <point x="520" y="502" type="line"/>
      <point x="318" y="502" type="line"/>
      <point x="211" y="0" type="line"/>
      <point x="164" y="0" type="line"/>
    </contour>
  </outline>
</glyph>
<glyph name="c_t" format="1">
  <advance width="820"/>
  <outline>
    <contour>
      <point x="220" y="-10" type="qcurve"/>
      <point x="173" y="-10"/>
      <point x="101" y="27"/>
      <point x="52" y="88"/>
      <point x="26" y="168"/>
      <point x="26" y="211" type="qcurve"/>
      <point x="26" y="269"/>
      <point x="74" y="383"/>
      <point x="156" y="473"/>
      <point x="266" y="529"/>
      <point x="329" y="529" type="qcurve"/>
      <point x="376" y="529"/>
      <point x="438" y="505"/>
      <point x="460" y="484" type="qcurve"/>
      <point x="452" y="503"/>
      <point x="439" y="555"/>
      <point x="439" y="583" type="qcurve"/>
      <point x="439" y="616"/>
      <point x="463" y="677"/>
      <point x="507" y="722"/>
      <point x="570" y="749"/>
      <point x="609" y="749" type="qcurve"/>
      <point x="678" y="749"/>
      <point x="727" y="697"/>
      <point x="727" y="652" type="qcurve"/>
      <point x="727" y="625"/>
      <point x="715" y="558"/>
      <point x="707" y="520" type="qcurve"/>
      <point x="822" y="520" type="line"/>
      <point x="813" y="479" type="line"/>
      <point x="698" y="479" type="line"/>
      <point x="617" y="99" type="line"/>
      <point x="616" y="95"/>
      <point x="616" y="88" type="qcurve"/>
      <point x="616" y="65"/>
      <point x="646" y="41"/>
      <point x="667" y="41" type="qcurve"/>
      <point x="691" y="41"/>
      <point x="733" y="57"/>
      <point x="749" y="65" type="qcurve"/>
      <point x="754" y="25" type="line"/>
      <point x="731" y="14"/>
      <point x="677" y="-6"/>
      <point x="643" y="-6" type="qcurve"/>
      <point x="608" y="-6"/>
      <point x="562" y="30"/>
      <point x="562" y="65" type="qcurve"/>
      <point x="562" y="75"/>
      <point x="565" y="87" type="qcurve"/>
      <point x="648" y="479" type="line"/>
      <point x="579" y="479" type="line"/>
      <point x="587" y="520" type="line"/>
      <point x="657" y="520" type="line"/>
      <point x="664" y="553"/>
      <point x="676" y="614"/>
      <point x="676" y="640" type="qcurve"/>
      <point x="676" y="675"/>
      <point x="641" y="718"/>
      <point x="592" y="718" type="qcurve"/>
      <point x="561" y="718"/>
      <point x="515" y="695"/>
      <point x="484" y="657"/>
      <point x="468" y="608"/>
      <point x="468" y="583" type="qcurve"/>
      <point x="468" y="559"/>
      <point x="478" y="506"/>
      <point x="491" y="458"/>
      <point x="503" y="419"/>
      <point x="505" y="408" type="qcurve"/>
      <point x="453" y="392" type="line"/>
      <point x="439" y="440"/>
      <point x="368" y="484"/>
      <point x="318" y="484" type="qcurve"/>
      <point x="267" y="484"/>
      <point x="180" y="435"/>
      <point x="115" y="358"/>
      <point x="78" y="263"/>
      <point x="78" y="217" type="qcurve"/>
      <point x="78" y="180"/>
      <point x="100" y="114"/>
      <point x="139" y="64"/>
      <point x="195" y="35"/>
      <point x="229" y="35" type="qcurve"/>
      <point x="250" y="35"/>
      <point x="301" y="48"/>
      <point x="351" y="73"/>
      <point x="392" y="109"/>
      <point x="403" y="131" type="qcurve"/>
      <point x="449" y="117" type="line"/>
      <point x="432" y="86"/>
      <point x="379" y="39"/>
      <point x="317" y="7"/>
      <point x="250" y="-10"/>
    </contour>
  </outline>
</glyph>
<glyph name="eight.denominator" format="1">
  <advance width="377"/>
  <outline>
    <contour>
      <point x="122" y="-4" type="qcurve"/>
      <point x="64" y="-4"/>
      <point x="-3" y="53"/>
      <point x="-3" y="94" type="qcurve"/>
      <point x="-3" y="117"/>
      <point x="17" y="155"/>
      <point x="49" y="184"/>
      <point x="90" y="205"/>
      <point x="110" y="211" type="qcurve"/>
      <point x="85" y="220"/>
      <point x="52" y="256"/>
      <point x="52" y="282" type="qcurve"/>
      <point x="52" y="308"/>
      <point x="81" y="349"/>
      <point x="126" y="378"/>
      <point x="181" y="393"/>
      <point x="208" y="393" type="qcurve"/>
      <point x="230" y="393"/>
      <point x="272" y="382"/>
      <point x="304" y="360"/>
      <point x="323" y="329"/>
      <point x="323" y="309" type="qcurve"/>
      <point x="323" y="272"/>
      <point x="266" y="223"/>
      <point x="228" y="211" type="qcurve"/>
      <point x="259" y="200"/>
      <point x="299" y="156"/>
      <point x="299" y="124" type="qcurve"/>
      <point x="299" y="95"/>
      <point x="269" y="48"/>
      <point x="219" y="15"/>
      <point x="155" y="-4"/>
    </contour>
    <contour>
      <point x="132" y="30" type="qcurve"/>
      <point x="154" y="30"/>
      <point x="201" y="43"/>
      <point x="239" y="67"/>
      <point x="263" y="102"/>
      <point x="263" y="123" type="qcurve"/>
      <point x="263" y="140"/>
      <point x="246" y="167"/>
      <point x="219" y="185"/>
      <point x="183" y="195"/>
      <point x="165" y="195" type="qcurve"/>
      <point x="142" y="195"/>
      <point x="95" y="181"/>
      <point x="57" y="156"/>
      <point x="33" y="121"/>
      <point x="33" y="100" type="qcurve"/>
      <point x="33" y="83"/>
      <point x="50" y="57"/>
      <point x="78" y="39"/>
      <point x="114" y="30"/>
    </contour>
    <contour>
      <point x="172" y="225" type="qcurve"/>
      <point x="191" y="225"/>
      <point x="231" y="236"/>
      <point x="265" y="255"/>
      <point x="287" y="283"/>
      <point x="287" y="301" type="qcurve"/>
      <point x="287" y="329"/>
      <point x="235" y="360"/>
      <point x="200" y="360" type="qcurve"/>
      <point x="179" y="360"/>
      <point x="138" y="349"/>
      <point x="107" y="329"/>
      <point x="87" y="301"/>
      <point x="87" y="283" type="qcurve"/>
      <point x="87" y="269"/>
      <point x="102" y="248"/>
      <point x="126" y="233"/>
      <point x="157" y="225"/>
    </contour>
  </outline>
</glyph>
<glyph name="four.denominator" format="1">
  <advance width="363"/>
  <outline>
    <contour>
      <point x="202" y="106" type="line"/>
      <point x="-16" y="106" type="line"/>
      <point x="-9" y="138" type="line"/>
      <point x="274" y="393" type="line"/>
      <point x="298" y="393" type="line"/>
      <point x="244" y="140" type="line"/>
      <point x="298" y="140" type="line"/>
      <point x="291" y="106" type="line"/>
      <point x="237" y="106" type="line"/>
      <point x="214" y="0" type="line"/>
      <point x="180" y="0" type="line"/>
    </contour>
    <contour>
      <point x="210" y="140" type="line"/>
      <point x="253" y="342" type="line"/>
      <point x="31" y="140" type="line"/>
    </contour>
  </outline>
</glyph>
<glyph name="nine.denominator" format="1">
  <advance width="388"/>
  <outline>
    <contour>
      <point x="119" y="-5" type="qcurve"/>
      <point x="75" y="-5"/>
      <point x="15" y="33"/>
      <point x="6" y="68" type="qcurve"/>
      <point x="34" y="90" type="line"/>
      <point x="40" y="61"/>
      <point x="90" y="28"/>
      <point x="126" y="28" type="qcurve"/>
      <point x="182" y="28"/>
      <point x="270" y="118"/>
      <point x="288" y="199" type="qcurve"/>
      <point x="266" y="167"/>
      <point x="189" y="128"/>
      <point x="147" y="128" type="qcurve"/>
      <point x="91" y="128"/>
      <point x="23" y="192"/>
      <point x="23" y="240" type="qcurve"/>
      <point x="23" y="272"/>
      <point x="54" y="329"/>
      <point x="105" y="371"/>
      <point x="172" y="396"/>
      <point x="208" y="396" type="qcurve"/>
      <point x="265" y="396"/>
      <point x="333" y="328"/>
      <point x="333" y="268" type="qcurve"/>
      <point x="333" y="211"/>
      <point x="302" y="112"/>
      <point x="245" y="38"/>
      <point x="167" y="-5"/>
    </contour>
    <contour>
      <point x="157" y="159" type="qcurve"/>
      <point x="184" y="159"/>
      <point x="235" y="178"/>
      <point x="275" y="210"/>
      <point x="299" y="253"/>
      <point x="299" y="276" type="qcurve"/>
      <point x="299" y="312"/>
      <point x="243" y="364"/>
      <point x="200" y="364" type="qcurve"/>
      <point x="173" y="364"/>
      <point x="122" y="345"/>
      <point x="83" y="313"/>
      <point x="59" y="270"/>
      <point x="59" y="247" type="qcurve"/>
      <point x="59" y="210"/>
      <point x="114" y="159"/>
    </contour>
  </outline>
</glyph>
<glyph name="one.numerator" format="1">
  <advance width="253"/>
  <outline>
    <contour>
      <point x="247" y="367" type="line"/>
      <point x="240" y="332" type="line"/>
      <point x="55" y="332" type="line"/>
      <point x="62" y="367" type="line"/>
      <point x="140" y="367" type="line"/>
      <point x="208" y="689" type="line"/>
      <point x="202" y="683"/>
      <point x="177" y="666"/>
      <point x="148" y="651"/>
      <point x="119" y="641"/>
      <point x="107" y="641" type="qcurve"/>
      <point x="114" y="676" type="line"/>
      <point x="129" y="676"/>
      <point x="165" y="692"/>
      <point x="195" y="712"/>
      <point x="216" y="730"/>
      <point x="217" y="731" type="qcurve"/>
      <point x="253" y="731" type="line"/>
      <point x="175" y="367" type="line"/>
    </contour>
  </outline>
</glyph>
<glyph name="seven.lnum" format="1">
  <advance width="486"/>
  <outline>
    <contour>
      <point x="476" y="663" type="line"/>
      <point x="100" y="663" type="line"/>
      <point x="109" y="710" type="line"/>
      <point x="567" y="710" type="line"/>
      <point x="72" y="0" type="line"/>
      <point x="16" y="0" type="line"/>
    </contour>
  </outline>
</glyph>
<glyph name="six.lnum" format="1">
  <advance width="585"/>
  <outline>
    <contour>
      <point x="237" y="-10" type="qcurve"/>
      <point x="150" y="-10"/>
      <point x="48" y="106"/>
      <point x="48" y="208" type="qcurve"/>
      <point x="48" y="307"/>
      <point x="99" y="490"/>
      <point x="191" y="631"/>
      <point x="319" y="715"/>
      <point x="397" y="715" type="qcurve"/>
      <point x="464" y="715"/>
      <point x="555" y="641"/>
      <point x="566" y="577" type="qcurve"/>
      <point x="526" y="550" type="line"/>
      <point x="518" y="604"/>
      <point x="443" y="670"/>
      <point x="386" y="670" type="qcurve"/>
      <point x="342" y="670"/>
      <point x="260" y="625"/>
      <point x="190" y="538"/>
      <point x="135" y="412"/>
      <point x="117" y="331" type="qcurve"/>
      <point x="135" y="363"/>
      <point x="186" y="416"/>
      <point x="246" y="454"/>
      <point x="312" y="475"/>
      <point x="346" y="475" type="qcurve"/>
      <point x="388" y="475"/>
      <point x="457" y="444"/>
      <point x="505" y="391"/>
      <point x="532" y="319"/>
      <point x="532" y="277" type="qcurve"/>
      <point x="532" y="219"/>
      <point x="482" y="115"/>
      <point x="400" y="36"/>
      <point x="294" y="-10"/>
    </contour>
    <contour>
      <point x="248" y="35" type="qcurve"/>
      <point x="292" y="35"/>
      <point x="376" y="73"/>
      <point x="442" y="137"/>
      <point x="482" y="221"/>
      <point x="482" y="268" type="qcurve"/>
      <point x="482" y="302"/>
      <point x="460" y="362"/>
      <point x="420" y="406"/>
      <point x="365" y="432"/>
      <point x="332" y="432" type="qcurve"/>
      <point x="288" y="432"/>
      <point x="204" y="394"/>
      <point x="138" y="329"/>
      <point x="97" y="245"/>
      <point x="97" y="199" type="qcurve"/>
      <point x="97" y="165"/>
      <point x="119" y="105"/>
      <point x="159" y="61"/>
      <point x="215" y="35"/>
    </contour>
  </outline>
</glyph>
<glyph name="three.numerator" format="1">
  <advance width="370"/>
  <outline>
    <contour>
      <point x="186" y="327" type="qcurve"/>
      <point x="162" y="327"/>
      <point x="117" y="339"/>
      <point x="82" y="362"/>
      <point x="60" y="396"/>
      <point x="60" y="419" type="qcurve"/>
      <point x="88" y="440" type="line"/>
      <point x="88" y="411"/>
      <point x="142" y="363"/>
      <point x="193" y="363" type="qcurve"/>
      <point x="219" y="363"/>
      <point x="267" y="376"/>
      <point x="303" y="399"/>
      <point x="325" y="430"/>
      <point x="325" y="449" type="qcurve"/>
      <point x="325" y="481"/>
      <point x="257" y="518"/>
      <point x="199" y="518" type="qcurve"/>
      <point x="178" y="518" type="line"/>
      <point x="184" y="550" type="line"/>
      <point x="206" y="550" type="line"/>
      <point x="274" y="550"/>
      <point x="351" y="591"/>
      <point x="351" y="632" type="qcurve"/>
      <point x="351" y="662"/>
      <point x="299" y="698"/>
      <point x="260" y="698" type="qcurve"/>
      <point x="221" y="698"/>
      <point x="156" y="667"/>
      <point x="137" y="641" type="qcurve"/>
      <point x="118" y="667" type="line"/>
      <point x="141" y="696"/>
      <point x="222" y="731"/>
      <point x="267" y="731" type="qcurve"/>
      <point x="323" y="731"/>
      <point x="389" y="678"/>
      <point x="389" y="638" type="qcurve"/>
      <point x="389" y="557"/>
      <point x="283" y="535" type="qcurve"/>
      <point x="319" y="528"/>
      <point x="360" y="482"/>
      <point x="360" y="451" type="qcurve"/>
      <point x="360" y="423"/>
      <point x="331" y="377"/>
      <point x="282" y="345"/>
      <point x="219" y="327"/>
    </contour>
  </outline>
</glyph>
<glyph name="two.numerator" format="1">
  <advance width="367"/>
  <outline>
    <contour>
      <point x="45" y="333" type="line"/>
      <point x="53" y="371"/>
      <point x="81" y="428"/>
      <point x="120" y="470"/>
      <point x="170" y="500"/>
      <point x="202" y="512" type="qcurve"/>
      <point x="228" y="522"/>
      <point x="283" y="540"/>
      <point x="328" y="565"/>
      <point x="357" y="602"/>
      <point x="357" y="630" type="qcurve"/>
      <point x="357" y="657"/>
      <point x="316" y="697"/>
      <point x="272" y="697" type="qcurve"/>
      <point x="248" y="697"/>
      <point x="206" y="685"/>
      <point x="173" y="668"/>
      <point x="147" y="648"/>
      <point x="139" y="640" type="qcurve"/>
      <point x="120" y="664" type="line"/>
      <point x="123" y="668"/>
      <point x="149" y="690"/>
      <point x="192" y="713"/>
      <point x="249" y="731"/>
      <point x="284" y="731" type="qcurve"/>
      <point x="343" y="731"/>
      <point x="397" y="677"/>
      <point x="397" y="638" type="qcurve"/>
      <point x="397" y="605"/>
      <point x="369" y="559"/>
      <point x="324" y="526"/>
      <point x="264" y="503"/>
      <point x="233" y="493" type="qcurve"/>
      <point x="197" y="481"/>
      <point x="150" y="449"/>
      <point x="122" y="415"/>
      <point x="108" y="381"/>
      <point x="105" y="367" type="qcurve"/>
      <point x="338" y="367" type="line"/>
      <point x="331" y="333" type="line"/>
    </contour>
  </outline>
</glyph>
<glyph name="u.alt" format="1">
  <advance width="559"/>
  <outline>
    <contour>
      <point x="167" y="-10" type="qcurve"/>
      <point x="131" y="-10"/>
      <point x="83" y="10"/>
      <point x="53" y="46"/>
      <point x="41" y="94"/>
      <point x="41" y="123" type="qcurve"/>
      <point x="41" y="146"/>
      <point x="48" y="194"/>
      <point x="53" y="220" type="qcurve"/>
      <point x="117" y="520" type="line"/>
      <point x="167" y="520" type="line"/>
      <point x="104" y="227" type="line"/>
      <point x="99" y="204"/>
      <point x="93" y="160"/>
      <point x="93" y="140" type="qcurve"/>
      <point x="93" y="93"/>
      <point x="135" y="35"/>
      <point x="190" y="35" type="qcurve"/>
      <point x="222" y="35"/>
      <point x="287" y="60"/>
      <point x="345" y="104"/>
      <point x="394" y="160"/>
      <point x="410" y="192" type="qcurve"/>
      <point x="480" y="520" type="line"/>
      <point x="530" y="520" type="line"/>
      <point x="419" y="0" type="line"/>
      <point x="370" y="0" type="line"/>
      <point x="396" y="121" type="line"/>
      <point x="375" y="91"/>
      <point x="321" y="43"/>
      <point x="261" y="8"/>
      <point x="198" y="-10"/>
    </contour>
  </outline>
</glyph>
